<?xml version="1.0" encoding="UTF-8"?>
<svg version="1.1" xmlns="http://www.w3.org/2000/svg" width="921" height="451">
<path d="M0 0 C1.83316969 -0.00379176 3.6663365 -0.00929881 5.49949646 -0.01637268 C10.43752332 -0.03023188 15.37519802 -0.0192255 20.313205 -0.00266147 C25.5040885 0.01128279 30.69495348 0.00471843 35.885849 0.00120544 C44.5984356 -0.00148907 53.31088384 0.01191426 62.0234375 0.03515625 C72.06871066 0.06176948 82.11375275 0.06350753 92.15904909 0.05176789 C101.8596121 0.04095607 111.56009227 0.0472033 121.26064873 0.06132317 C125.37235939 0.06705265 129.48400881 0.06702437 133.59572029 0.06225777 C138.44436842 0.05745454 143.29276634 0.06772701 148.14136696 0.08921242 C149.91133531 0.09473486 151.68132793 0.09528787 153.45129776 0.09025955 C168.56690822 0.05273044 182.80813376 0.87554435 194.57788086 11.50561523 C204.52883513 21.88356941 206.55174533 33.04684932 206.48413086 46.93920898 C206.48219727 47.89972168 206.48026367 48.86023438 206.47827148 49.84985352 C206.42891547 58.09642109 206.01858623 66.2820688 205.35913086 74.50170898 C201.18296403 75.50910472 197.1415374 75.65294973 192.86938477 75.65942383 C192.13197052 75.66450455 191.39455627 75.66958527 190.63479614 75.67481995 C189.03776852 75.68549155 187.44072625 75.69412422 185.84367752 75.70093918 C183.30190721 75.7128042 180.76030108 75.73228104 178.21859741 75.75405884 C170.99287533 75.81538383 163.76716804 75.86944084 156.54125977 75.90307617 C152.11328123 75.92423573 147.68559999 75.95971227 143.25779343 76.00383377 C141.58441079 76.0178357 139.91097553 76.02667975 138.23753738 76.02988815 C125.03271222 76.05786037 111.62982629 76.56550105 99.73413086 82.93920898 C98.62811523 83.51541992 97.52209961 84.09163086 96.38256836 84.68530273 C86.03997448 90.89887657 79.22792947 101.17724989 75.35913086 112.50170898 C71.39814083 128.65674161 73.54205498 143.76079992 81.43725586 158.37670898 C85.96067238 165.7318578 91.33349937 169.82623628 98.85913086 173.81420898 C99.45653076 174.14018066 100.05393066 174.46615234 100.66943359 174.80200195 C113.62213715 181.16816379 128.77077442 180.96328697 142.85913086 181.01342773 C144.67473525 181.03032178 146.49032829 181.04847814 148.3059082 181.06782532 C153.02718552 181.11481937 157.74841682 181.14495301 162.46984863 181.17126465 C167.31063937 181.20132913 172.15127207 181.24776867 176.99194336 181.29272461 C186.44758897 181.3781801 195.90326765 181.44577844 205.35913086 181.50170898 C208.78001917 197.5858931 209.46619382 225.32278912 200.60913086 239.62670898 C199.56601034 240.95106297 198.4830769 242.24522214 197.35913086 243.50170898 C196.83319336 244.13334961 196.30725586 244.76499023 195.76538086 245.41577148 C188.93812158 252.98372399 180.26665132 256.19781705 170.35913086 257.50170898 C164.32162252 257.79250133 158.29160232 257.77563106 152.24829102 257.76049805 C150.42394369 257.76321183 148.59959747 257.76677494 146.7752533 257.77111816 C141.84335128 257.78019958 136.91153339 257.77671514 131.97962999 257.77035999 C126.80293593 257.76527642 121.6262488 257.76999812 116.44955444 257.77313232 C107.75598872 257.77676576 99.06245703 257.77198989 90.36889648 257.76245117 C80.34076952 257.75157469 70.31272393 257.75508887 60.28459895 257.76610398 C51.65327627 257.77520279 43.02197799 257.77644927 34.39065206 257.77122664 C29.24504665 257.7681203 24.0994794 257.76766056 18.9538765 257.77429962 C14.11273231 257.78011003 9.2716922 257.77600905 4.43055916 257.76451111 C2.66177988 257.76188389 0.89299173 257.76259614 -0.87578392 257.76703644 C-17.56359124 257.80504157 -30.53370806 257.00973387 -43.45336914 245.25170898 C-54.88903819 232.96386267 -54.94106306 218.55521255 -54.91552734 202.75805664 C-54.91988073 200.97311694 -54.92506596 199.18817911 -54.93101501 197.40324402 C-54.94434873 192.57878291 -54.94498998 187.75440042 -54.94245172 182.92992449 C-54.94137819 178.89188907 -54.9462751 174.85386931 -54.95105714 170.81583726 C-54.96213284 161.28403247 -54.96260063 151.75226709 -54.95654297 142.22045898 C-54.95050405 132.41043013 -54.96281659 122.60054473 -54.98411304 112.79054034 C-55.00176623 104.34605043 -55.00772454 95.90160603 -55.0044753 87.45709836 C-55.00266824 82.42324949 -55.0052407 77.38950297 -55.01918983 72.35567093 C-55.03182423 67.6195492 -55.02977131 62.88365008 -55.01677895 58.14753151 C-55.0144258 56.41745107 -55.01710215 54.68735469 -55.02540207 52.95729256 C-55.0859388 39.34911523 -54.35970433 27.5384784 -45.64086914 16.50170898 C-45.15360352 15.86362305 -44.66633789 15.22553711 -44.16430664 14.56811523 C-32.85140967 0.50261499 -16.80088929 -0.10006515 0 0 Z " fill="#2AC5B3" transform="translate(70.640869140625,134.498291015625)"/>
<path d="M0 0 C0.84969864 -0.0049649 1.69939728 -0.00992981 2.57484436 -0.01504517 C5.36492746 -0.02956307 8.15495382 -0.03644915 10.94506836 -0.04199219 C12.89367167 -0.04774943 14.84227498 -0.05350709 16.7908783 -0.05926514 C20.86677309 -0.06974365 24.94264833 -0.0756078 29.01855469 -0.07910156 C34.2361445 -0.0845988 39.45347501 -0.10866631 44.67098331 -0.13707352 C48.69189715 -0.15570576 52.71274835 -0.16090567 56.73370171 -0.16243744 C58.65739812 -0.16545998 60.58109353 -0.17347506 62.50474739 -0.18662262 C65.19477256 -0.20370553 67.88416113 -0.20179815 70.57421875 -0.1953125 C71.75966278 -0.20913467 71.75966278 -0.20913467 72.96905518 -0.22323608 C77.78479549 -0.18692358 81.02740326 0.54782659 85.22241211 3.16113281 C89.22411 7.57679946 89.35331904 11.50532081 89.38354492 17.30712891 C89.38850983 18.03105331 89.39347473 18.75497772 89.39859009 19.50083923 C89.41319364 21.89542593 89.42001048 24.2899464 89.42553711 26.68457031 C89.43128981 28.34982302 89.43704753 30.0150757 89.44281006 31.68032837 C89.45331473 35.17230538 89.45916097 38.66425941 89.46264648 42.15625 C89.46813179 46.62748507 89.4921627 51.0984157 89.52061844 55.56955528 C89.53925514 59.00968307 89.54445095 62.44973765 89.54598236 65.88991165 C89.54900681 67.53811941 89.55702838 69.18632594 89.57016754 70.8344841 C89.58725088 73.14200675 89.58534261 75.44878716 89.57885742 77.75634766 C89.58432587 79.72467056 89.58432587 79.72467056 89.58990479 81.73275757 C89.17673898 85.58722192 88.84690234 87.29933377 86.22241211 90.16113281 C80.51701213 93.04614179 74.74608849 93.59976537 68.45239258 93.54931641 C67.62661209 93.55457336 66.8008316 93.55983032 65.95002747 93.56524658 C63.24635334 93.57834354 60.54327874 93.56974042 57.83959961 93.55957031 C55.93783456 93.56159516 54.03607027 93.56451001 52.13430786 93.56826782 C48.15513694 93.57267826 44.17616873 93.56630578 40.19702148 93.55224609 C35.13726421 93.53522522 30.07798697 93.54495846 25.0182476 93.56296349 C21.09044904 93.57389614 17.16276086 93.57031075 13.23495865 93.56258011 C11.37174546 93.56060052 9.50852175 93.56295706 7.64532089 93.57001877 C-9.32483656 93.62019921 -26.39546633 93.09962854 -39.59008789 80.91113281 C-49.01238704 70.65280232 -53.20878526 58.0039538 -53.05883789 44.22753906 C-51.91522925 31.75902819 -45.95893127 19.65084958 -36.77758789 11.16113281 C-25.52027004 2.5322517 -13.95348769 0.01978763 0 0 Z M-21.96508789 36.59863281 C-25.48892984 41.58061626 -26.39963453 45.28788761 -26.28540039 51.39941406 C-25.55230389 55.3863312 -23.82319122 57.23139622 -20.77368164 59.79003906 C-15.72650841 63.25688408 -11.0116275 65.14545486 -4.77758789 64.16113281 C0.08531526 61.38361511 4.86602382 57.73706557 6.90991211 52.34863281 C7.73942151 46.54206702 7.45930657 42.10125745 4.60522461 36.96191406 C1.52330499 32.94845377 -2.42838605 31.47221433 -7.34399414 30.82128906 C-13.87150519 30.5780882 -17.51931909 31.64477615 -21.96508789 36.59863281 Z " fill="#2BC5B3" transform="translate(201.777587890625,215.8388671875)"/>
<path d="M0 0 C7.26 0 14.52 0 22 0 C21.33965429 5.2827657 20.68718558 9.68923341 19.31689453 14.71508789 C19.06490941 15.64802516 19.06490941 15.64802516 18.80783367 16.59980965 C18.25472848 18.6422224 17.69387411 20.6824162 17.1328125 22.72265625 C16.73733185 24.17601372 16.34229664 25.62949246 15.94767761 27.08308411 C14.89657542 30.94898 13.8384986 34.81293342 12.77878189 38.67647552 C11.90701669 41.85804593 11.03932113 45.0407203 10.17157459 48.22338867 C3.90999232 71.18528949 -2.44788855 94.11914339 -9 117 C-16.26 117 -23.52 117 -31 117 C-31.52956299 115.20449707 -32.05912598 113.40899414 -32.60473633 111.55908203 C-34.3647298 105.59195992 -36.1249381 99.62490122 -37.88528919 93.6578846 C-38.95139813 90.04409426 -40.01742385 86.43027942 -41.08325195 82.81640625 C-42.11399619 79.32150269 -43.14496872 75.82666655 -44.17609215 72.33187485 C-44.56723664 71.00602435 -44.9583022 69.68015057 -45.34928322 68.35425186 C-47.3443024 61.58891201 -49.34307975 54.82537964 -51.39978027 48.07849121 C-52.32607952 44.87082448 -53.01417628 41.64542948 -53.6875 38.375 C-53.93886719 37.16585937 -54.19023437 35.95671875 -54.44921875 34.7109375 C-54.63097656 33.81632812 -54.81273437 32.92171875 -55 32 C-55.40992188 33.90458984 -55.40992188 33.90458984 -55.828125 35.84765625 C-56.99480431 41.08450162 -58.34804976 46.25928036 -59.75 51.4375 C-60.03367432 52.48921387 -60.31734863 53.54092773 -60.60961914 54.62451172 C-66.26375577 75.45524253 -72.16132557 96.22047353 -78 117 C-85.59 117 -93.18 117 -101 117 C-103.71400788 107.26989162 -106.42717688 97.53955026 -109.13902187 87.80883884 C-110.39940829 83.28640542 -111.66010827 78.76405999 -112.92163086 74.24194336 C-116.05806185 62.9981678 -119.18619365 51.75212227 -122.3052597 40.50351715 C-122.99743026 38.00926015 -123.69108589 35.51542021 -124.3850708 33.02166748 C-125.46930424 29.1239648 -126.54818572 25.22481925 -127.62288094 21.32447624 C-128.01872239 19.89090593 -128.41630402 18.45781484 -128.81573296 17.02523994 C-129.36120623 15.06755631 -129.89965993 13.10792082 -130.43774414 11.14819336 C-130.74120255 10.05115585 -131.04466095 8.95411835 -131.35731506 7.82383728 C-132 5 -132 5 -132 1 C-124.41 1 -116.82 1 -109 1 C-103.74655827 20.44422013 -98.72226569 39.93479312 -93.9375 59.5 C-93.69035248 60.50751312 -93.44320496 61.51502625 -93.18856812 62.55307007 C-92.48609515 65.42009947 -91.7872012 68.28797254 -91.08984375 71.15625 C-90.87777283 72.02244461 -90.6657019 72.88863922 -90.44720459 73.78108215 C-89 79.76821184 -89 79.76821184 -89 82 C-88.01 82 -87.02 82 -86 82 C-85.90033936 80.75323486 -85.80067871 79.50646973 -85.69799805 78.22192383 C-85.04960109 72.43556082 -83.47967394 67.01991896 -81.83203125 61.44921875 C-81.51473557 60.35519241 -81.19743988 59.26116608 -80.87052917 58.13398743 C-79.85810932 54.64976457 -78.83540289 51.1686578 -77.8125 47.6875 C-77.1445209 45.39277055 -76.47719766 43.09785007 -75.81054688 40.80273438 C-71.9435086 27.51400312 -67.9945335 14.25091751 -64 1 C-57.4 1 -50.8 1 -44 1 C-41.27732176 10.82229382 -38.55615268 20.6450023 -35.83763218 30.46844769 C-34.57523288 35.02992669 -33.31217516 39.59122123 -32.04760742 44.15209961 C-30.82708093 48.55423015 -29.60829092 52.95683807 -28.39069939 57.35978127 C-27.92604216 59.03884789 -27.46076128 60.71774205 -26.99484444 62.39645958 C-26.34199379 64.74912198 -25.69137036 67.10238975 -25.04125977 69.45581055 C-24.84848953 70.1484903 -24.6557193 70.84117004 -24.45710754 71.55484009 C-23.50305794 75.01776174 -22.64872387 78.46655866 -22 82 C-21.01 82 -20.02 82 -19 82 C-19.02931107 80.97896179 -19.05862213 79.95792358 -19.08882141 78.90594482 C-19.00386851 75.17011885 -18.4918853 72.1154285 -17.57885742 68.50488281 C-17.26820847 67.25958801 -16.95755951 66.01429321 -16.63749695 64.73126221 C-16.29369093 63.38849771 -15.94967625 62.04578663 -15.60546875 60.703125 C-15.25324173 59.30475938 -14.90171694 57.90621672 -14.55085754 56.50750732 C-13.6272277 52.83396343 -12.69354973 49.16304488 -11.75787354 45.49255371 C-11.00209719 42.52104654 -10.25324174 39.54781737 -9.50481701 36.57445145 C-6.42958152 24.35754438 -3.35371798 12.14418039 0 0 Z " fill="#F2F2F2" transform="translate(471,286)"/>
<path d="M0 0 C1.83316969 -0.00379176 3.6663365 -0.00929881 5.49949646 -0.01637268 C10.43752332 -0.03023188 15.37519802 -0.0192255 20.313205 -0.00266147 C25.5040885 0.01128279 30.69495348 0.00471843 35.885849 0.00120544 C44.5984356 -0.00148907 53.31088384 0.01191426 62.0234375 0.03515625 C72.06871066 0.06176948 82.11375275 0.06350753 92.15904909 0.05176789 C101.8596121 0.04095607 111.56009227 0.0472033 121.26064873 0.06132317 C125.37235939 0.06705265 129.48400881 0.06702437 133.59572029 0.06225777 C138.44436842 0.05745454 143.29276634 0.06772701 148.14136696 0.08921242 C149.91133531 0.09473486 151.68132793 0.09528787 153.45129776 0.09025955 C168.56690822 0.05273044 182.80813376 0.87554435 194.57788086 11.50561523 C204.52883513 21.88356941 206.55174533 33.04684932 206.48413086 46.93920898 C206.48219727 47.89972168 206.48026367 48.86023438 206.47827148 49.84985352 C206.42891547 58.09642109 206.01858623 66.2820688 205.35913086 74.50170898 C201.18296403 75.50910472 197.1415374 75.65294973 192.86938477 75.65942383 C192.13197052 75.66450455 191.39455627 75.66958527 190.63479614 75.67481995 C189.03776852 75.68549155 187.44072625 75.69412422 185.84367752 75.70093918 C183.30190721 75.7128042 180.76030108 75.73228104 178.21859741 75.75405884 C170.99287533 75.81538383 163.76716804 75.86944084 156.54125977 75.90307617 C152.11328123 75.92423573 147.68559999 75.95971227 143.25779343 76.00383377 C141.58441079 76.0178357 139.91097553 76.02667975 138.23753738 76.02988815 C125.03271222 76.05786037 111.62982629 76.56550105 99.73413086 82.93920898 C98.62811523 83.51541992 97.52209961 84.09163086 96.38256836 84.68530273 C86.03997448 90.89887657 79.22792947 101.17724989 75.35913086 112.50170898 C71.39814083 128.65674161 73.54205498 143.76079992 81.43725586 158.37670898 C85.96067238 165.7318578 91.33349937 169.82623628 98.85913086 173.81420898 C99.45653076 174.14018066 100.05393066 174.46615234 100.66943359 174.80200195 C113.62213715 181.16816379 128.77077442 180.96328697 142.85913086 181.01342773 C144.67473525 181.03032178 146.49032829 181.04847814 148.3059082 181.06782532 C153.02718552 181.11481937 157.74841682 181.14495301 162.46984863 181.17126465 C167.31063937 181.20132913 172.15127207 181.24776867 176.99194336 181.29272461 C186.44758897 181.3781801 195.90326765 181.44577844 205.35913086 181.50170898 C208.78001917 197.5858931 209.46619382 225.32278912 200.60913086 239.62670898 C199.56601034 240.95106297 198.4830769 242.24522214 197.35913086 243.50170898 C196.83319336 244.13334961 196.30725586 244.76499023 195.76538086 245.41577148 C188.93812158 252.98372399 180.26665132 256.19781705 170.35913086 257.50170898 C164.32162252 257.79250133 158.29160232 257.77563106 152.24829102 257.76049805 C150.42394369 257.76321183 148.59959747 257.76677494 146.7752533 257.77111816 C141.84335128 257.78019958 136.91153339 257.77671514 131.97962999 257.77035999 C126.80293593 257.76527642 121.6262488 257.76999812 116.44955444 257.77313232 C107.75598872 257.77676576 99.06245703 257.77198989 90.36889648 257.76245117 C80.34076952 257.75157469 70.31272393 257.75508887 60.28459895 257.76610398 C51.65327627 257.77520279 43.02197799 257.77644927 34.39065206 257.77122664 C29.24504665 257.7681203 24.0994794 257.76766056 18.9538765 257.77429962 C14.11273231 257.78011003 9.2716922 257.77600905 4.43055916 257.76451111 C2.66177988 257.76188389 0.89299173 257.76259614 -0.87578392 257.76703644 C-17.56359124 257.80504157 -30.53370806 257.00973387 -43.45336914 245.25170898 C-54.88903819 232.96386267 -54.94106306 218.55521255 -54.91552734 202.75805664 C-54.91988073 200.97311694 -54.92506596 199.18817911 -54.93101501 197.40324402 C-54.94434873 192.57878291 -54.94498998 187.75440042 -54.94245172 182.92992449 C-54.94137819 178.89188907 -54.9462751 174.85386931 -54.95105714 170.81583726 C-54.96213284 161.28403247 -54.96260063 151.75226709 -54.95654297 142.22045898 C-54.95050405 132.41043013 -54.96281659 122.60054473 -54.98411304 112.79054034 C-55.00176623 104.34605043 -55.00772454 95.90160603 -55.0044753 87.45709836 C-55.00266824 82.42324949 -55.0052407 77.38950297 -55.01918983 72.35567093 C-55.03182423 67.6195492 -55.02977131 62.88365008 -55.01677895 58.14753151 C-55.0144258 56.41745107 -55.01710215 54.68735469 -55.02540207 52.95729256 C-55.0859388 39.34911523 -54.35970433 27.5384784 -45.64086914 16.50170898 C-45.15360352 15.86362305 -44.66633789 15.22553711 -44.16430664 14.56811523 C-32.85140967 0.50261499 -16.80088929 -0.10006515 0 0 Z M-35.64086914 16.50170898 C-36.63086914 17.16170898 -37.62086914 17.82170898 -38.64086914 18.50170898 C-38.64086914 19.16170898 -38.64086914 19.82170898 -38.64086914 20.50170898 C-39.30086914 20.50170898 -39.96086914 20.50170898 -40.64086914 20.50170898 C-41.62436939 22.58300003 -42.60251372 24.66682258 -43.57836914 26.75170898 C-44.3962793 28.49194336 -44.3962793 28.49194336 -45.23071289 30.26733398 C-47.4206033 35.29012973 -47.78803797 39.4952334 -47.78131104 44.94548035 C-47.78428216 45.69800514 -47.78725328 46.45052993 -47.79031444 47.22585851 C-47.79899032 49.74905365 -47.80050875 52.27220128 -47.80200195 54.79541016 C-47.80663097 56.60403545 -47.81165574 58.41265977 -47.81704712 60.22128296 C-47.83016636 65.13678251 -47.83661532 70.05226841 -47.84105778 74.96778274 C-47.84398968 78.04000453 -47.84809475 81.1122226 -47.85256195 84.18444252 C-47.86623654 93.80010021 -47.875903 103.41574938 -47.87976384 113.03141612 C-47.88424259 124.12466914 -47.90178216 135.21779883 -47.93076444 146.31101435 C-47.95239722 154.88951118 -47.962469 163.46797336 -47.96380496 172.04649717 C-47.96485198 177.16809761 -47.97073766 182.28958211 -47.98862457 187.41115379 C-48.00513249 192.23171281 -48.00724753 197.05206907 -47.99848557 201.87264633 C-47.99771661 203.63785025 -48.00203919 205.4030652 -48.01194382 207.1682415 C-48.06517308 217.24927546 -47.68387076 225.41570575 -43.07836914 234.62670898 C-41.64086914 237.50170898 -41.64086914 237.50170898 -40.76586914 241.18920898 C-39.96276099 244.59144193 -39.96276099 244.59144193 -37.41940117 246.13559437 C-26.99859124 251.25917064 -13.30456345 249.79317958 -1.94506836 249.77636719 C0.01254977 249.78072223 1.97016621 249.785908 3.92778015 249.79185486 C9.20598851 249.80515979 14.48412491 249.80583389 19.76234674 249.80329156 C24.17417975 249.80221768 28.58599844 249.80711499 32.99782836 249.81189698 C43.39757045 249.82295913 53.79727638 249.82344584 64.19702148 249.81738281 C74.92921136 249.81132262 85.66127082 249.82371326 96.39343846 249.84495288 C105.61830803 249.86253862 114.84313593 249.86857569 124.06802166 249.86531514 C129.57381745 249.8634999 135.07951983 249.86616399 140.58530045 249.88002968 C145.75151464 249.89255682 150.91752366 249.89071274 156.08373451 249.87761879 C157.98207861 249.8752436 159.88043694 249.87802119 161.77876472 249.88624191 C164.36309691 249.89663003 166.9467301 249.88867378 169.53103638 249.87593079 C170.28772901 249.88330507 171.04442164 249.89067936 171.82404435 249.8982771 C175.77493033 249.91267847 175.77493033 249.91267847 179.14526176 248.08378887 C179.54583857 247.56170251 179.94641537 247.03961615 180.35913086 246.50170898 C181.43163086 245.94483398 182.50413086 245.38795898 183.60913086 244.81420898 C190.30028986 241.0654624 195.07203727 234.88284155 197.64819336 227.70483398 C200.5932441 214.43592405 199.39241973 200.01699162 199.35913086 186.50170898 C198.16667755 186.4895787 198.16667755 186.4895787 196.95013428 186.47720337 C189.36270611 186.39841985 181.77544767 186.31089807 174.18822861 186.2141819 C170.28998939 186.16478161 166.39177024 186.11846034 162.4934082 186.07983398 C120.79206145 185.66080713 120.79206145 185.66080713 103.35913086 181.50170898 C103.35913086 180.84170898 103.35913086 180.18170898 103.35913086 179.50170898 C102.2337793 179.33348633 102.2337793 179.33348633 101.08569336 179.16186523 C92.51709516 177.51073737 86.99284824 174.20444294 81.35913086 167.50170898 C80.35605355 165.5032506 79.35595668 163.50329293 78.35913086 161.50170898 C77.68108398 160.85331055 77.00303711 160.20491211 76.30444336 159.53686523 C73.76077028 156.87571328 73.19054383 154.47150733 72.23413086 150.93920898 C71.22286918 147.25771503 70.48660644 144.69292236 68.35913086 141.50170898 C68.19056232 138.75318471 68.12581746 136.1206904 68.17163086 133.37670898 C68.17259766 132.26489258 68.17259766 132.26489258 68.17358398 131.13061523 C68.21873627 125.64210357 68.21873627 125.64210357 69.35913086 124.50170898 C69.35320936 122.29299054 69.30384536 120.08433488 69.23413086 117.87670898 C69.18821968 110.33197257 70.24455218 106.61138351 74.48413086 100.37670898 C76.51127446 97.67434651 76.51127446 97.67434651 76.85913086 94.75170898 C77.02413086 94.00920898 77.18913086 93.26670898 77.35913086 92.50170898 C78.69246419 91.83504232 80.02579753 91.16837565 81.35913086 90.50170898 C83.82090724 88.33300122 86.1698039 86.06818885 88.53100586 83.79077148 C102.2466963 72.68939773 120.97278962 70.59855241 137.93334961 70.69702148 C139.72225204 70.68573101 141.51113968 70.67183311 143.30000305 70.65548706 C147.93761575 70.61991931 152.57456309 70.61901481 157.21228027 70.62615967 C161.97293501 70.62708232 166.733353 70.59407729 171.49389648 70.56420898 C180.78237784 70.51079039 190.07051251 70.4941107 199.35913086 70.50170898 C199.38652435 66.32073246 199.40307388 62.1397793 199.41772461 57.95874023 C199.42557983 56.77993286 199.43343506 55.60112549 199.44152832 54.38659668 C199.45959626 47.51234777 199.19043143 41.08660079 197.85913086 34.33764648 C197.08540251 29.94915602 196.96726166 25.53152099 196.80053711 21.08374023 C196.65487305 20.23166992 196.50920898 19.37959961 196.35913086 18.50170898 C195.36913086 17.84170898 194.37913086 17.18170898 193.35913086 16.50170898 C193.02913086 17.16170898 192.69913086 17.82170898 192.35913086 18.50170898 C191.8628418 18.10338867 191.36655273 17.70506836 190.85522461 17.29467773 C181.78857398 10.2237225 173.68969074 8.34756181 162.28211975 8.36126709 C161.105552 8.35681041 161.105552 8.35681041 159.9052152 8.35226369 C157.29226788 8.34363258 154.67936667 8.34207323 152.06640625 8.34057617 C150.18675134 8.33594419 148.30709736 8.33091902 146.42744446 8.32553101 C141.33244334 8.31244526 136.23745537 8.30597002 131.14244008 8.30152035 C127.95747594 8.29858462 124.77251536 8.29447896 121.58755302 8.29001617 C111.61684024 8.27635394 101.64613564 8.26667995 91.67541414 8.26281428 C80.17523953 8.25833064 68.6751836 8.24076318 57.17504507 8.21181369 C48.27718553 8.19019376 39.37935939 8.1801099 30.48147386 8.17877316 C25.17047998 8.17772576 19.85959785 8.17183092 14.54863167 8.15395355 C9.55403364 8.13746661 4.55963135 8.13532043 -0.43498421 8.14409256 C-2.26511281 8.14486248 -4.09525197 8.14052612 -5.925354 8.13063431 C-8.42942601 8.11789595 -10.93280658 8.1238015 -13.43687439 8.13421631 C-14.15585889 8.1261599 -14.8748434 8.1181035 -15.61561531 8.10980296 C-24.00650195 8.191068 -29.57412748 10.99931538 -35.64086914 16.50170898 Z " fill="#60BEB0" transform="translate(70.640869140625,134.498291015625)"/>
<path d="M0 0 C7.26 0 14.52 0 22 0 C24.12117642 2.12117642 23.23519247 6.8451446 23.28125 9.78515625 C23.30886414 11.11963051 23.30886414 11.11963051 23.33703613 12.48106384 C23.39597333 15.3414731 23.44863148 18.20194544 23.5 21.0625 C23.55158619 23.89805294 23.6046887 26.73353067 23.66296387 29.56895447 C23.69924129 31.33528569 23.73175442 33.10169962 23.7598877 34.86817932 C23.86454362 39.98292228 24.27969299 44.93415665 25 50 C25.66 50 26.32 50 27 50 C27.27457031 49.41081787 27.54914063 48.82163574 27.83203125 48.21459961 C28.95515919 46.08502319 30.15340791 44.41388394 31.6875 42.56640625 C32.21601563 41.92445313 32.74453125 41.2825 33.2890625 40.62109375 C33.85367188 39.94175781 34.41828125 39.26242188 35 38.5625 C39.08205156 33.59930074 43.10839707 28.61412951 47 23.5 C47.81339844 22.47519531 48.62679687 21.45039063 49.46484375 20.39453125 C51.3949443 17.90976102 53.01878846 15.33864081 54.62890625 12.63671875 C61.53335619 1.80287829 61.53335619 1.80287829 68.02539062 0.29931641 C75.38637393 -0.38102985 82.67585092 0.10963004 90 1 C87.14979651 6.3829509 83.87339576 10.7287982 79.8125 15.25 C78.64334604 16.57447556 77.47538205 17.90000246 76.30859375 19.2265625 C75.4575708 20.19190918 75.4575708 20.19190918 74.58935547 21.17675781 C71.72821169 24.45894241 69.00251924 27.84873546 66.265625 31.234375 C64.567314 33.30748567 62.85215308 35.35548048 61.109375 37.390625 C60.6138916 37.96989746 60.1184082 38.54916992 59.60791016 39.14599609 C58.64715794 40.26618826 57.68346858 41.3838707 56.71630859 42.49853516 C52.86144573 46.9296137 52.86144573 46.9296137 50 52 C50.96862961 57.03173079 54.93537257 61.27155624 57.9375 65.3125 C59.12388864 66.93119861 60.30875859 68.55101128 61.4921875 70.171875 C62.08483398 70.98333984 62.67748047 71.79480469 63.28808594 72.63085938 C65.77191552 76.06826415 68.17440686 79.55817554 70.5625 83.0625 C74.95619096 89.50339859 79.42637827 95.8861656 83.94165039 102.24243164 C84.87193282 103.55404247 85.79895093 104.86797673 86.72216797 106.18457031 C87.54851141 107.35856531 88.38544636 108.52520687 89.23486328 109.68261719 C91.50139733 112.85914626 92 113.92732121 92 118 C84.30509798 119.39907309 73.99097941 120.97214739 67 117 C61.43960798 112.06133958 57.81686017 106.21601092 54.28833008 99.7331543 C50.24417728 92.40953637 45.31091472 85.71137348 40.40869141 78.94580078 C38.25755737 75.97447699 36.12991743 72.98655698 34 70 C32.53548421 71.41027446 31.0786107 72.82848796 29.625 74.25 C28.40683594 75.43335938 28.40683594 75.43335938 27.1640625 76.640625 C22.11657182 82.14366538 21.9251543 88.24537093 21.68359375 95.4921875 C21.64169922 96.69101563 21.59980469 97.88984375 21.55664062 99.125 C21.51732422 100.3625 21.47800781 101.6 21.4375 102.875 C21.39431641 104.13570313 21.35113281 105.39640625 21.30664062 106.6953125 C21.20090956 109.79675708 21.09998412 112.89836483 21 116 C14.4 116 7.8 116 1 116 C0.67 77.72 0.34 39.44 0 0 Z " fill="#F7F7F7" transform="translate(342,138)"/>
<path d="M0 0 C6.27 0 12.54 0 19 0 C19.81700829 4.08504143 20.14935416 7.4167704 20.20532227 11.53442383 C20.22526749 12.83539505 20.24521271 14.13636627 20.26576233 15.47676086 C20.28274289 16.8868498 20.29962183 18.29693996 20.31640625 19.70703125 C20.33699375 21.15720692 20.35799068 22.60737682 20.37937927 24.05754089 C20.43441455 27.86326415 20.48390511 31.66903989 20.53222656 35.47485352 C20.58257751 39.36284015 20.63819243 43.25075113 20.69335938 47.13867188 C20.80071392 54.75905041 20.9022087 62.37949211 21 70 C21.59748047 69.26322021 22.19496094 68.52644043 22.81054688 67.76733398 C23.60525391 66.79094971 24.39996094 65.81456543 25.21875 64.80859375 C26.00185547 63.84493896 26.78496094 62.88128418 27.59179688 61.88842773 C29.82667082 59.20789309 32.12942732 56.62300644 34.5 54.0625 C38.72887076 49.44041845 42.40246084 44.54783223 46.0546875 39.46875 C48 37 48 37 51 35 C53.17651367 34.77294922 53.17651367 34.77294922 55.66796875 34.8046875 C56.56064453 34.81113281 57.45332031 34.81757813 58.37304688 34.82421875 C59.30181641 34.84097656 60.23058594 34.85773438 61.1875 34.875 C62.12787109 34.88402344 63.06824219 34.89304688 64.03710938 34.90234375 C66.35832968 34.92590944 68.67903644 34.95880884 71 35 C71.33 35.66 71.66 36.32 72 37 C67.72628871 42.77607396 63.10870154 48.13686405 58.21435547 53.38867188 C53.56849733 58.40202622 49.26116973 63.65512537 45 69 C47.44887287 75.65614693 51.28718675 81.05281383 55.375 86.8125 C56.08019775 87.81845215 56.78539551 88.8244043 57.51196289 89.86083984 C60.92943215 94.72098443 64.38661832 99.54821687 67.91015625 104.33203125 C68.50715332 105.14502686 69.10415039 105.95802246 69.71923828 106.7956543 C70.83812372 108.31246105 71.96503074 109.82339372 73.10107422 111.32739258 C75.69090103 114.82944075 77.65941194 117.51122404 78 122 C70.74170331 123.96359717 62.3359125 126.0984734 55.3125 122.4375 C42.40678427 113.69297299 35.98858569 98.43815813 29 85 C27.85073734 85.95421808 26.70569459 86.91352045 25.5625 87.875 C24.92441406 88.40867187 24.28632812 88.94234375 23.62890625 89.4921875 C21.56252948 91.40494873 21.04448142 92.46587901 20.81054688 95.27490234 C20.76510742 96.66636475 20.76510742 96.66636475 20.71875 98.0859375 C20.68136719 99.09914063 20.64398437 100.11234375 20.60546875 101.15625 C20.55326172 102.74953125 20.55326172 102.74953125 20.5 104.375 C20.43097249 106.46627782 20.35820309 108.55743631 20.28125 110.6484375 C20.23581055 112.04328369 20.23581055 112.04328369 20.18945312 113.46630859 C20 116 20 116 19 120 C12.73 120 6.46 120 0 120 C0 80.4 0 40.8 0 0 Z " fill="#F3F3F3" transform="translate(582,134)"/>
<path d="M0 0 C6.73214955 6.14072707 11.12890295 13.38670884 14 22 C14 29.26 14 36.52 14 44 C-5.47 44 -24.94 44 -45 44 C-41.7283809 56.15827208 -41.7283809 56.15827208 -34 65 C-30.36955693 66.41990662 -26.47841671 66.2038513 -22.625 66.25 C-21.33851563 66.27578125 -20.05203125 66.3015625 -18.7265625 66.328125 C-13.44095306 65.86272543 -10.20281016 64.40327852 -6.75 60.375 C-5.88375 59.199375 -5.88375 59.199375 -5 58 C-2.14804778 56.57402389 0.32461175 56.8679748 3.5 56.875 C4.6653125 56.87242187 5.830625 56.86984375 7.03125 56.8671875 C10 57 10 57 12 58 C11.56405069 66.13772049 8.77537608 71.60492865 2.875 77.25 C-5.33838104 83.84586617 -16.72516839 85.80880599 -27 85 C-38.55290216 83.3886023 -49.33562304 79.89680651 -57.4375 71.11328125 C-66.65020971 58.65309137 -68.94050372 44.0330947 -66.6953125 28.95361328 C-65.10488064 20.98319647 -62.15559957 14.2594749 -57 8 C-56.52175781 7.38769531 -56.04351563 6.77539062 -55.55078125 6.14453125 C-42.27455709 -9.00440967 -16.41458491 -11.7883449 0 0 Z M-41.9375 17.125 C-44.6551078 21.78297061 -44.6551078 21.78297061 -46 31 C-32.14 31 -18.28 31 -4 31 C-5.11668672 20.30843814 -5.11668672 20.30843814 -11.6875 12.61328125 C-21.03617035 7.06250823 -34.93471154 8.51401303 -41.9375 17.125 Z " fill="#F2F2F2" transform="translate(742,320)"/>
<path d="M0 0 C4.5753425 4.09759589 7.03935532 8.71063913 7.9453125 14.7421875 C8.08031327 18.11378019 8.06155991 21.48165459 8.04296875 24.85546875 C8.0415538 25.82501999 8.04013885 26.79457123 8.03868103 27.79350281 C8.03309763 30.88059617 8.02054814 33.96761617 8.0078125 37.0546875 C8.00279536 39.15169166 7.99823282 41.24869696 7.99414062 43.34570312 C7.98313362 48.47789271 7.96588038 53.61002768 7.9453125 58.7421875 C8.6053125 58.7421875 9.2653125 58.7421875 9.9453125 58.7421875 C10.28454826 61.09563556 10.61681784 63.4497359 10.9453125 65.8046875 C11.04070312 66.46146484 11.13609375 67.11824219 11.234375 67.79492188 C11.84541862 72.22498813 11.9453125 76.20696682 11.9453125 80.7421875 C5.3453125 80.7421875 -1.2546875 80.7421875 -8.0546875 80.7421875 C-9.0446875 78.1021875 -10.0346875 75.4621875 -11.0546875 72.7421875 C-11.6734375 73.2990625 -12.2921875 73.8559375 -12.9296875 74.4296875 C-23.55918801 82.29551788 -33.81716165 84.15816618 -46.87890625 82.3515625 C-53.68787572 80.68405977 -58.46654108 76.9705404 -63.0546875 71.7421875 C-67.06617315 64.84744655 -68.06743531 56.73584146 -66.02734375 49.0078125 C-62.76156567 41.40077922 -56.58553867 36.93196009 -49.25390625 33.6171875 C-44.87625605 31.87545811 -41.19356135 31.6105495 -36.54296875 31.64453125 C-35.81474411 31.6459462 -35.08651947 31.64736115 -34.33622742 31.64881897 C-32.01317211 31.65441091 -29.69021362 31.66696188 -27.3671875 31.6796875 C-25.79101702 31.68470354 -24.21484502 31.68926627 -22.63867188 31.69335938 C-18.77730652 31.7043777 -14.91601342 31.72163676 -11.0546875 31.7421875 C-11.3846875 30.7521875 -11.7146875 29.7621875 -12.0546875 28.7421875 C-12.15507382 26.78465424 -12.23629655 24.82609959 -12.3046875 22.8671875 C-12.62641653 18.57573731 -12.79503845 17.09066386 -15.4296875 13.5546875 C-21.0979806 9.64086607 -27.41254634 10.3100482 -34.0546875 10.7421875 C-37.06231068 11.34371214 -38.40776381 12.01593292 -41.0546875 13.7421875 C-42.0446875 15.7221875 -43.0346875 17.7021875 -44.0546875 19.7421875 C-49.9946875 19.7421875 -55.9346875 19.7421875 -62.0546875 19.7421875 C-61.71754452 11.65075587 -60.51856687 5.91281932 -54.44921875 0.2421875 C-39.82887926 -10.9990804 -14.73153084 -10.61303834 0 0 Z M-44.6171875 48.3671875 C-46.85895164 52.07097173 -46.65735419 55.53105397 -46.0546875 59.7421875 C-44.66013056 63.51569452 -43.4642014 64.49982213 -39.9921875 66.5546875 C-33.30953203 69.02191262 -26.28179308 68.44559354 -19.80859375 65.66015625 C-15.63422424 63.47535261 -12.74215287 61.16425077 -11.0546875 56.7421875 C-10.81325084 53.46275992 -10.81325084 53.46275992 -10.9296875 49.9921875 C-10.94773437 48.82171875 -10.96578125 47.65125 -10.984375 46.4453125 C-11.00757813 45.55328125 -11.03078125 44.66125 -11.0546875 43.7421875 C-14.53368999 43.65393389 -18.01239867 43.60138115 -21.4921875 43.5546875 C-22.95301758 43.51698242 -22.95301758 43.51698242 -24.44335938 43.47851562 C-31.87485673 43.40395211 -38.25953796 44.3355073 -44.6171875 48.3671875 Z " fill="#F2F3F2" transform="translate(562.0546875,321.2578125)"/>
<path d="M0 0 C8.15740731 7.00700371 14.69602067 16.91938607 16.0625 27.75 C16.91264666 41.38217624 16.14778268 56.19386396 8.0625 67.75 C-0.79246816 77.50231675 -11.22192564 81.5470426 -24.19921875 83.00390625 C-35.81209243 83.35723912 -47.56992306 79.05631412 -56.46875 71.640625 C-65.63100785 61.99974174 -67.85862457 49.57446992 -68.1875 36.625 C-67.83540075 24.49713704 -64.3482535 12.42457218 -55.890625 3.34375 C-40.36118554 -9.3282726 -16.70372802 -12.20657047 0 0 Z M-42.61328125 16.66015625 C-48.44540215 25.86424086 -48.2092633 38.4235375 -46.3984375 48.85546875 C-44.77743771 54.74272622 -42.50444934 59.88896173 -37.4375 63.5625 C-31.1653898 66.54175235 -24.2418605 66.78409532 -17.6875 64.5 C-11.69922773 61.94040052 -8.42268223 58.83869646 -5.9375 52.75 C-3.29213601 42.87150789 -3.12392442 28.7900822 -7.73828125 19.59375 C-10.88313797 14.75866084 -14.49834296 11.66377748 -19.9375 9.75 C-28.26525485 8.55469134 -36.83367315 10.07221135 -42.61328125 16.66015625 Z " fill="#F2F2F2" transform="translate(727.9375,174.25)"/>
<path d="M0 0 C6.80081122 4.97235327 10.59492921 11.78801415 12 20 C12.08756705 21.75110943 12.12783989 23.50500394 12.12939453 25.25830078 C12.13254669 26.28351837 12.13569885 27.30873596 12.13894653 28.36502075 C12.1369223 29.46401703 12.13489807 30.56301331 12.1328125 31.6953125 C12.13376923 32.83853973 12.13472595 33.98176697 12.13571167 35.15963745 C12.1363917 37.57875626 12.13454974 39.9978769 12.13037109 42.41699219 C12.12504992 46.09053741 12.13030682 49.76395872 12.13671875 53.4375 C12.13605736 55.7942711 12.13477494 58.15104212 12.1328125 60.5078125 C12.13483673 61.59466339 12.13686096 62.68151428 12.13894653 63.80130005 C12.11843541 70.5954628 11.70416697 77.24153547 11 84 C4.73 84 -1.54 84 -8 84 C-8.83006232 76.725507 -9.15888035 69.57969714 -9.2109375 62.26171875 C-9.23897233 60.03840367 -9.26763648 57.81509645 -9.296875 55.59179688 C-9.33828917 52.12459253 -9.37522587 48.65754081 -9.40136719 45.19018555 C-9.42892515 41.81789922 -9.4747496 38.44625729 -9.5234375 35.07421875 C-9.52669037 34.03770676 -9.52994324 33.00119476 -9.53329468 31.93327332 C-9.62198686 26.74882449 -9.74902696 23.27398764 -13 19 C-13 18.34 -13 17.68 -13 17 C-16.86949227 16.10481895 -20.53053703 15.80564668 -24.5 15.75 C-26.15515625 15.71132812 -26.15515625 15.71132812 -27.84375 15.671875 C-31.33640242 16.03497253 -33.11770517 17.07170416 -36 19 C-36.66 19 -37.32 19 -38 19 C-39.75041412 23.31768817 -41.11782147 26.92174656 -41.18945312 31.60400391 C-41.20617065 32.53572418 -41.22288818 33.46744446 -41.2401123 34.42739868 C-41.25368774 35.43362274 -41.26726318 36.4398468 -41.28125 37.4765625 C-41.29965942 38.51638275 -41.31806885 39.556203 -41.33703613 40.62753296 C-41.39582337 43.95996402 -41.44856727 47.29244783 -41.5 50.625 C-41.55159317 53.93612397 -41.60466256 57.24718398 -41.66296387 60.55819702 C-41.69923785 62.61837271 -41.73175157 64.67861922 -41.7598877 66.73892212 C-41.77660522 67.68955536 -41.79332275 68.6401886 -41.81054688 69.61962891 C-41.82933899 70.85514999 -41.82933899 70.85514999 -41.84851074 72.1156311 C-42.05725608 76.09016085 -42.56048168 80.04433508 -43 84 C-49.27 84 -55.54 84 -62 84 C-62 55.95 -62 27.9 -62 -1 C-55.73 -1 -49.46 -1 -43 -1 C-42.34 0.98 -41.68 2.96 -41 5 C-40.25556641 4.38511719 -40.25556641 4.38511719 -39.49609375 3.7578125 C-38.81675781 3.21898437 -38.13742187 2.68015625 -37.4375 2.125 C-36.44556641 1.32449219 -36.44556641 1.32449219 -35.43359375 0.5078125 C-26.10826382 -5.27000027 -9.72176119 -5.06753541 0 0 Z " fill="#F3F3F3" transform="translate(551,170)"/>
<path d="M0 0 C6.6 0 13.2 0 20 0 C20 6.6 20 13.2 20 20 C26.27 20 32.54 20 39 20 C39 25.28 39 30.56 39 36 C32.73 36 26.46 36 20 36 C20.495 39.465 20.495 39.465 21 43 C21.08749807 44.52728924 21.14388548 46.05693887 21.15771484 47.58666992 C21.16797699 48.41410202 21.17823914 49.24153412 21.18881226 50.09403992 C21.19611359 50.96406143 21.20341492 51.83408295 21.2109375 52.73046875 C21.23897884 54.60352477 21.26764306 56.47657156 21.296875 58.34960938 C21.33826545 61.27921552 21.37518892 64.2086437 21.40136719 67.13842773 C21.42892587 69.98196075 21.47475874 72.82472945 21.5234375 75.66796875 C21.52669037 76.54406296 21.52994324 77.42015717 21.53329468 78.32279968 C21.605186 81.87246122 21.6689899 84.35511488 23.30639648 87.54516602 C26.0548257 89.90611307 29.22839876 89.67772798 32.6875 89.75 C36.3071875 89.87375 36.3071875 89.87375 40 90 C40 95.28 40 100.56 40 106 C29.8210123 109.48993864 21.74395087 110.46836989 11.5546875 106.3984375 C6.37852551 103.56500326 3.18543099 99.42474521 0.625 94.1875 C-3.07576482 75.31359944 -0.82483906 55.05967396 0 36 C-4.29 36 -8.58 36 -13 36 C-13 30.72 -13 25.44 -13 20 C-8.71 20 -4.42 20 0 20 C0 13.4 0 6.8 0 0 Z " fill="#F5F5F5" transform="translate(781,296)"/>
<path d="M0 0 C0.84969864 -0.0049649 1.69939728 -0.00992981 2.57484436 -0.01504517 C5.36492746 -0.02956307 8.15495382 -0.03644915 10.94506836 -0.04199219 C12.89367167 -0.04774943 14.84227498 -0.05350709 16.7908783 -0.05926514 C20.86677309 -0.06974365 24.94264833 -0.0756078 29.01855469 -0.07910156 C34.2361445 -0.0845988 39.45347501 -0.10866631 44.67098331 -0.13707352 C48.69189715 -0.15570576 52.71274835 -0.16090567 56.73370171 -0.16243744 C58.65739812 -0.16545998 60.58109353 -0.17347506 62.50474739 -0.18662262 C65.19477256 -0.20370553 67.88416113 -0.20179815 70.57421875 -0.1953125 C71.75966278 -0.20913467 71.75966278 -0.20913467 72.96905518 -0.22323608 C77.78479549 -0.18692358 81.02740326 0.54782659 85.22241211 3.16113281 C89.22411 7.57679946 89.35331904 11.50532081 89.38354492 17.30712891 C89.38850983 18.03105331 89.39347473 18.75497772 89.39859009 19.50083923 C89.41319364 21.89542593 89.42001048 24.2899464 89.42553711 26.68457031 C89.43128981 28.34982302 89.43704753 30.0150757 89.44281006 31.68032837 C89.45331473 35.17230538 89.45916097 38.66425941 89.46264648 42.15625 C89.46813179 46.62748507 89.4921627 51.0984157 89.52061844 55.56955528 C89.53925514 59.00968307 89.54445095 62.44973765 89.54598236 65.88991165 C89.54900681 67.53811941 89.55702838 69.18632594 89.57016754 70.8344841 C89.58725088 73.14200675 89.58534261 75.44878716 89.57885742 77.75634766 C89.58432587 79.72467056 89.58432587 79.72467056 89.58990479 81.73275757 C89.17673898 85.58722192 88.84690234 87.29933377 86.22241211 90.16113281 C80.51701213 93.04614179 74.74608849 93.59976537 68.45239258 93.54931641 C67.62661209 93.55457336 66.8008316 93.55983032 65.95002747 93.56524658 C63.24635334 93.57834354 60.54327874 93.56974042 57.83959961 93.55957031 C55.93783456 93.56159516 54.03607027 93.56451001 52.13430786 93.56826782 C48.15513694 93.57267826 44.17616873 93.56630578 40.19702148 93.55224609 C35.13726421 93.53522522 30.07798697 93.54495846 25.0182476 93.56296349 C21.09044904 93.57389614 17.16276086 93.57031075 13.23495865 93.56258011 C11.37174546 93.56060052 9.50852175 93.56295706 7.64532089 93.57001877 C-9.32483656 93.62019921 -26.39546633 93.09962854 -39.59008789 80.91113281 C-49.01238704 70.65280232 -53.20878526 58.0039538 -53.05883789 44.22753906 C-51.91522925 31.75902819 -45.95893127 19.65084958 -36.77758789 11.16113281 C-25.52027004 2.5322517 -13.95348769 0.01978763 0 0 Z M-21.77758789 12.16113281 C-23.27032227 12.86496094 -23.27032227 12.86496094 -24.79321289 13.58300781 C-34.34626305 19.26139427 -40.26759563 26.63115602 -43.77758789 37.16113281 C-45.13137682 53.65031203 -45.13137682 53.65031203 -40.77758789 69.16113281 C-39.4654523 69.8686089 -38.13344243 70.54155174 -36.77758789 71.16113281 C-36.69508789 71.90363281 -36.61258789 72.64613281 -36.52758789 73.41113281 C-35.29674018 77.92424107 -31.62594421 79.78077694 -27.77758789 82.16113281 C-20.82051504 85.84596281 -14.34547294 86.3104797 -6.64453125 86.30639648 C-5.27782036 86.3114344 -5.27782036 86.3114344 -3.88349915 86.3165741 C-0.87812937 86.32605685 2.12718457 86.3280256 5.13256836 86.32910156 C7.22334313 86.33231506 9.31411767 86.3356792 11.40489197 86.33918762 C15.78360516 86.34517151 20.16229863 86.34702819 24.54101562 86.34643555 C30.15563343 86.34633375 35.77012527 86.3600074 41.38471317 86.37720776 C45.70064375 86.388315 50.0165437 86.39035518 54.33248711 86.38982582 C56.40296298 86.39100704 58.47343963 86.39543672 60.54390144 86.40315819 C63.43560818 86.41293601 66.32703899 86.41008917 69.21875 86.40405273 C70.07548309 86.40967224 70.93221619 86.41529175 71.81491089 86.42108154 C72.9987159 86.41478981 72.9987159 86.41478981 74.20643616 86.40837097 C74.88944322 86.40891574 75.57245028 86.40946051 76.27615452 86.41002178 C78.5803396 86.11536076 80.21013203 85.29388516 82.22241211 84.16113281 C82.29182808 74.54730896 82.34518041 64.93357096 82.37784863 55.31955147 C82.3935253 50.85568536 82.4147998 46.3919903 82.44873047 41.92822266 C82.48125296 37.62291653 82.49925003 33.31777526 82.50704384 29.0123558 C82.51260019 27.36724119 82.52345 25.72213592 82.53960228 24.07709122 C82.56128264 21.77824436 82.56438307 19.48008447 82.56298828 17.18115234 C82.56965012 15.87099152 82.57631195 14.56083069 82.58317566 13.21096802 C82.46412369 12.2045224 82.34507172 11.19807678 82.22241211 10.16113281 C78.38561131 7.60326561 75.24338075 7.86564888 70.79467773 7.87060547 C69.93408752 7.86388824 69.07349731 7.85717102 68.18682861 7.85025024 C65.33404802 7.83121436 62.48150233 7.82734219 59.62866211 7.82519531 C57.64147851 7.81876751 55.65429587 7.81203916 53.66711426 7.80502319 C49.49411835 7.7930338 45.32120528 7.7893437 41.14819336 7.79052734 C35.82325688 7.79072977 30.49885872 7.76351465 25.17404938 7.72898293 C21.06455086 7.70663778 16.95517986 7.70269225 12.84562683 7.7037468 C10.88419249 7.70139894 8.92275419 7.69262178 6.96138 7.67708206 C-7.84352994 7.51950016 -7.84352994 7.51950016 -21.77758789 12.16113281 Z " fill="#57BAAC" transform="translate(201.777587890625,215.8388671875)"/>
<path d="M0 0 C6.6 0 13.2 0 20 0 C20 40.59 20 81.18 20 123 C13.4 123 6.8 123 0 123 C0 82.41 0 41.82 0 0 Z " fill="#F7F7F7" transform="translate(594,279)"/>
<path d="M0 0 C6.27 0 12.54 0 19 0 C19 40.26 19 80.52 19 122 C12.73 122 6.46 122 0 122 C0 81.74 0 41.48 0 0 Z " fill="#FEFEFE" transform="translate(638,280)"/>
<path d="M0 0 C6.6 0 13.2 0 20 0 C20 28.05 20 56.1 20 85 C13.4 85 6.8 85 0 85 C0 56.95 0 28.9 0 0 Z " fill="#F5F6F5" transform="translate(448,169)"/>
<path d="M0 0 C0.66 0 1.32 0 2 0 C2.99 16.83 2.99 16.83 4 34 C4.66 33.01 5.32 32.02 6 31 C5.76569131 43.39706 2.43200355 51.0664285 -6.23046875 59.89453125 C-16.67680587 67.83610489 -25.84498074 67.65014128 -38.4753418 67.41577148 C-40.44571115 67.39788952 -42.41610171 67.38222724 -44.38650513 67.36860657 C-49.71517026 67.325261 -55.0429624 67.25028916 -60.37116599 67.16897464 C-65.95574151 67.08862903 -71.54058233 67.03580619 -77.1254425 66.97950745 C-86.49934098 66.8810205 -95.87283563 66.76325138 -105.24633789 66.63256836 C-116.07756645 66.48166778 -126.90885408 66.35502952 -137.74054784 66.24275917 C-149.285515 66.1230525 -160.83027126 65.98859752 -172.37500405 65.8482182 C-175.69703901 65.80861973 -179.01909433 65.77144463 -182.34116173 65.73467827 C-187.56242387 65.67595673 -192.78346089 65.60711761 -198.0044899 65.53048515 C-199.91884549 65.50383031 -201.83324915 65.4804002 -203.74768639 65.46045303 C-206.36359704 65.43259179 -208.97906893 65.39285353 -211.59477234 65.3500824 C-212.72707662 65.34203218 -212.72707662 65.34203218 -213.88225573 65.33381933 C-218.6380067 65.2395526 -222.56070012 64.60931129 -227 63 C-228.4375 60.875 -228.4375 60.875 -229 59 C-227.85524358 59.16210339 -226.71048716 59.32420677 -225.53104115 59.49122238 C-221.17233672 60.0331048 -216.89124052 60.14551839 -212.50334167 60.14044189 C-211.68599605 60.14341302 -210.86865043 60.14638414 -210.02653676 60.1494453 C-207.30828929 60.15806525 -204.59008619 60.15963476 -201.87182617 60.16113281 C-199.91494657 60.16576536 -197.95806786 60.1707906 -196.00119019 60.17617798 C-190.70204505 60.18925287 -185.40291254 60.19573609 -180.10375381 60.20018864 C-176.79369357 60.20312436 -173.48363676 60.20722987 -170.17357826 60.21169281 C-159.81791138 60.22534825 -149.46225236 60.23502722 -139.1065771 60.2388947 C-127.14848043 60.24338552 -115.19049748 60.26098888 -103.23243541 60.2898953 C-93.9864415 60.31147211 -84.74047971 60.32159666 -75.49446088 60.32293582 C-69.97181494 60.32398575 -64.44927619 60.32993473 -58.92665672 60.34775543 C-53.74000157 60.36416929 -48.55353504 60.36642436 -43.36686325 60.35761642 C-41.46045618 60.35684273 -39.55403922 60.36123218 -37.64765739 60.37107468 C-35.05212351 60.38369345 -32.45726822 60.37797308 -29.86174011 60.36749268 C-29.10163688 60.37554908 -28.34153365 60.38360548 -27.558397 60.39190602 C-23.59357029 60.41227704 -23.59357029 60.41227704 -20.21176624 58.57859421 C-19.81188338 58.05765812 -19.41200052 57.53672203 -19 57 C-17.9275 56.46375 -16.855 55.9275 -15.75 55.375 C-8.39440286 51.29202023 -4.32534989 43.85178326 -2 36 C-1.5342354 33.11685476 -1.37999473 30.26000165 -1.26953125 27.34375 C-1.229384 26.55601196 -1.18923676 25.76827393 -1.14787292 24.95666504 C-1.02397058 22.47151769 -0.91793271 19.98599227 -0.8125 17.5 C-0.73100373 15.80202599 -0.64833228 14.10410796 -0.56445312 12.40625 C-0.36272268 8.27135556 -0.17699488 4.13602406 0 0 Z " fill="#46C3B2" transform="translate(270,323)"/>
<path d="M0 0 C0.84969864 -0.0049649 1.69939728 -0.00992981 2.57484436 -0.01504517 C5.36492746 -0.02956307 8.15495382 -0.03644915 10.94506836 -0.04199219 C12.89367167 -0.04774943 14.84227498 -0.05350709 16.7908783 -0.05926514 C20.86677309 -0.06974365 24.94264833 -0.0756078 29.01855469 -0.07910156 C34.2361445 -0.0845988 39.45347501 -0.10866631 44.67098331 -0.13707352 C48.69189715 -0.15570576 52.71274835 -0.16090567 56.73370171 -0.16243744 C58.65739812 -0.16545998 60.58109353 -0.17347506 62.50474739 -0.18662262 C65.19477256 -0.20370553 67.88416113 -0.20179815 70.57421875 -0.1953125 C71.75966278 -0.20913467 71.75966278 -0.20913467 72.96905518 -0.22323608 C77.79452926 -0.18685019 80.98110362 0.61284805 85.22241211 3.16113281 C84.89241211 3.82113281 84.56241211 4.48113281 84.22241211 5.16113281 C60.48898523 5.33763999 36.76492812 5.02354775 13.03491211 4.66113281 C12.25174118 4.649175 11.46857025 4.63721718 10.66166687 4.624897 C0.84851182 4.4746608 -8.96456752 4.31992926 -18.77758789 4.16113281 C-18.77758789 5.15113281 -18.77758789 6.14113281 -18.77758789 7.16113281 C-20.92211914 8.59863281 -20.92211914 8.59863281 -23.77758789 10.16113281 C-25.68882075 11.47229671 -27.58444677 12.80645544 -29.46508789 14.16113281 C-30.41770508 14.84175781 -31.37032227 15.52238281 -32.35180664 16.22363281 C-34.96010947 18.10563323 -34.96010947 18.10563323 -36.77758789 21.16113281 C-37.76758789 21.16113281 -38.75758789 21.16113281 -39.77758789 21.16113281 C-40.06633789 21.94488281 -40.35508789 22.72863281 -40.65258789 23.53613281 C-41.77758789 26.16113281 -41.77758789 26.16113281 -43.77758789 28.16113281 C-44.44593208 30.83619081 -44.44593208 30.83619081 -44.88305664 33.97363281 C-45.0615918 35.13121094 -45.24012695 36.28878906 -45.42407227 37.48144531 C-45.60260742 38.69574219 -45.78114258 39.91003906 -45.96508789 41.16113281 C-46.15522461 42.37542969 -46.34536133 43.58972656 -46.54125977 44.84082031 C-47.83317389 50.63529848 -47.83317389 50.63529848 -46.77758789 56.16113281 C-46.73759589 58.16073293 -46.7341199 60.16160523 -46.77758789 62.16113281 C-46.17946289 62.38800781 -45.58133789 62.61488281 -44.96508789 62.84863281 C-42.20568369 64.50427533 -41.36398007 66.40218989 -39.77758789 69.16113281 C-38.78758789 69.82113281 -37.79758789 70.48113281 -36.77758789 71.16113281 C-36.44758789 72.04800781 -36.11758789 72.93488281 -35.77758789 73.84863281 C-33.12041467 78.24957596 -29.74919935 79.98821482 -25.37133789 82.54785156 C-23.14121032 83.93496404 -21.51538128 85.2178571 -19.77758789 87.16113281 C-20.43758789 88.15113281 -21.09758789 89.14113281 -21.77758789 90.16113281 C-30.64411028 88.77524654 -37.41766309 83.34617809 -43.02758789 76.57128906 C-50.37509017 66.45207276 -54.3181351 53.67379962 -52.77758789 41.16113281 C-49.6703855 27.21213283 -43.48395788 15.43467088 -31.46508789 7.34863281 C-21.61505184 1.41699245 -11.33292832 0.01607138 0 0 Z " fill="#5DBBAD" transform="translate(201.777587890625,215.8388671875)"/>
<path d="M0 0 C0.33 0 0.66 0 1 0 C1.13535156 0.84820312 1.27070313 1.69640625 1.41015625 2.5703125 C3.72920192 15.20702842 8.10828258 28.22979173 19 36 C21.44444889 37.55176864 23.94196014 38.95694689 26.5 40.3125 C27.0973999 40.63847168 27.6947998 40.96444336 28.31030273 41.30029297 C41.26300629 47.6664548 56.41164356 47.46157798 70.5 47.51171875 C72.31560439 47.52861279 74.13119743 47.54676915 75.94677734 47.56611633 C80.66805466 47.61311039 85.38928596 47.64324403 90.11071777 47.66955566 C94.95150851 47.69962015 99.79214121 47.74605969 104.6328125 47.79101562 C114.08845811 47.87647111 123.54413679 47.94406945 133 48 C134.29921801 54.07967507 134.2231766 60.10239516 134.24023438 66.29223633 C134.24995512 68.42764019 134.28102437 70.56208648 134.3125 72.69726562 C134.31903004 74.06770267 134.32428051 75.43814654 134.328125 76.80859375 C134.3374707 78.04407959 134.34681641 79.27956543 134.35644531 80.55249023 C133.96751669 84.3141759 132.88510543 86.75021512 131 90 C130.67 90 130.34 90 130 90 C128.90091391 78.3222103 128.89097086 66.71811669 129 55 C128.34 55 127.68 55 127 55 C127 54.34 127 53.68 127 53 C126.20503113 53.00444122 125.41006226 53.00888245 124.59100342 53.01345825 C117.00371039 53.05396511 109.41647168 53.08419877 101.82909775 53.10362434 C97.93077638 53.11394772 94.03254623 53.12789004 90.13427734 53.15087891 C60.27893398 53.32187051 60.27893398 53.32187051 48.390625 52.1796875 C47.64552673 52.1100882 46.90042847 52.04048889 46.13275146 51.96878052 C40.82971209 51.35603793 36.00126665 49.8369711 31 48 C31 47.34 31 46.68 31 46 C30.40574219 46.03222656 29.81148437 46.06445312 29.19921875 46.09765625 C20.70046579 45.97870014 15.87931317 41.82061787 10 36 C7.96748223 33.56007332 7.01446227 32.04338681 6 29 C5.21625 28.319375 4.4325 27.63875 3.625 26.9375 C-0.74127647 22.05142871 -2.00670778 17.00844028 -1.9921875 10.49609375 C-1.37117197 1.37117197 -1.37117197 1.37117197 0 0 Z " fill="#56BAAB" transform="translate(143,268)"/>
<path d="M0 0 C8.34797376 -0.02360604 16.69593264 -0.0411524 25.04393196 -0.05181217 C28.92399432 -0.05693902 32.80403319 -0.06384006 36.68408203 -0.07543945 C46.3896287 -0.10336879 56.09400259 -0.09002665 65.79933167 -0.01566315 C68.00679937 0.00004839 70.21425403 0.01053352 72.42175293 0.02081299 C76.59196149 0.04439522 80.76011543 0.11479404 84.9296875 0.19140625 C86.80528854 0.19961647 86.80528854 0.19961647 88.71878052 0.20799255 C98.17362601 0.44404347 98.17362601 0.44404347 101.25439453 3.36303711 C103.95629221 7.4446031 104.13237302 10.46020758 104.16113281 15.25634766 C104.17074036 16.54844147 104.1803479 17.84053528 104.19024658 19.17178345 C104.19509652 20.58587466 104.19937487 21.99996794 104.203125 23.4140625 C104.20888094 24.86795045 104.21463862 26.32183839 104.22039795 27.77572632 C104.23090403 30.82721306 104.23674834 33.8786735 104.24023438 36.93017578 C104.24569897 40.82035843 104.2696845 44.7101875 104.29820633 48.60025978 C104.31693559 51.60648574 104.32204388 54.61262858 104.32357025 57.61890793 C104.32657739 59.0516896 104.33453962 60.48447049 104.34775543 61.91719437 C104.36501975 63.93381948 104.36106184 65.95059143 104.35644531 67.96728516 C104.36191376 69.68245834 104.36191376 69.68245834 104.36749268 71.43228149 C104 75 104 75 101 84 C93.08 84 85.16 84 77 84 C77 83.34 77 82.68 77 82 C77.59014893 81.97494385 78.18029785 81.9498877 78.78833008 81.92407227 C81.46326814 81.80799948 84.1378638 81.68532428 86.8125 81.5625 C87.74126953 81.52318359 88.67003906 81.48386719 89.62695312 81.44335938 C90.51962891 81.40146484 91.41230469 81.35957031 92.33203125 81.31640625 C93.15421143 81.27974854 93.9763916 81.24309082 94.82348633 81.20532227 C97.17905178 81.06572228 97.17905178 81.06572228 100 80 C100 55.58 100 31.16 100 6 C96.77056752 4.38528376 93.23480619 4.83467719 89.68579102 4.82299805 C88.82534683 4.81642685 87.96490265 4.80985565 87.0783844 4.80308533 C84.22022415 4.78331909 81.36211672 4.77167785 78.50390625 4.76171875 C77.52653944 4.75764322 76.54917263 4.7535677 75.54218864 4.74936867 C70.36186814 4.72848652 65.18157423 4.71419821 60.0012207 4.70483398 C54.66844021 4.69380895 49.33608153 4.65946053 44.00344944 4.61966228 C39.88967659 4.59340833 35.77600248 4.58513401 31.66215324 4.58155251 C29.69791781 4.57670348 27.73368629 4.56513796 25.76953316 4.54651451 C10.9502141 4.36325917 10.9502141 4.36325917 -3 9 C-4.49273437 9.68642578 -4.49273437 9.68642578 -6.015625 10.38671875 C-14.97887825 15.60483647 -20.81830144 23.11132706 -24 33 C-24.48342879 36.58526164 -24.47337747 40.07601113 -24.375 43.6875 C-24.37371094 44.59822266 -24.37242187 45.50894531 -24.37109375 46.44726562 C-24.30653611 51.38592498 -23.77458812 55.33806973 -22 60 C-22.375 62.375 -22.375 62.375 -23 64 C-23.45375 63.195625 -23.9075 62.39125 -24.375 61.5625 C-25.74725665 58.91143428 -25.74725665 58.91143428 -28 58 C-30.75674854 50.55765969 -29.80675602 43.43167023 -28.4375 35.8125 C-28.27958984 34.77158203 -28.12167969 33.73066406 -27.95898438 32.65820312 C-26.8603288 26.22555431 -25.45257915 21.8504984 -21 17 C-20.01 17 -19.02 17 -18 17 C-17.68675781 16.15501953 -17.68675781 16.15501953 -17.3671875 15.29296875 C-15.48690814 12.13947166 -13.06766639 10.48892196 -10.125 8.3125 C-9.07570312 7.52488281 -8.02640625 6.73726562 -6.9453125 5.92578125 C-4.45813646 4.29955076 -2.88914552 3.41173813 0 3 C0 2.01 0 1.02 0 0 Z " fill="#4AC1B1" transform="translate(183,220)"/>
<path d="M0 0 C1.32 0.99 2.64 1.98 4 3 C4.66 2.34 5.32 1.68 6 1 C8 4 8 4 8 7 C8.67546875 7.17015625 9.3509375 7.3403125 10.046875 7.515625 C15.20450628 8.91683119 18.35901475 9.95446084 22 14 C26.25226504 15.22146966 30.55664681 15.16188487 34.94607544 15.182724 C35.74044002 15.1903344 36.53480461 15.19794479 37.35324085 15.20578581 C40.01168031 15.23014692 42.67012145 15.24772798 45.32861328 15.26538086 C47.23579273 15.28155108 49.14296843 15.29816883 51.05014038 15.31520081 C55.1550648 15.35106433 59.25999887 15.38408089 63.36496353 15.41499138 C69.85199918 15.46418186 76.33894454 15.52168068 82.82589722 15.58070374 C101.27138011 15.74727899 119.71694563 15.90294072 138.16259766 16.04956055 C148.35136666 16.13062165 158.54005076 16.21871294 168.72869289 16.31442744 C175.18146476 16.3746217 181.63422836 16.42595438 188.08712411 16.47081935 C192.09490507 16.50072949 196.10257671 16.53882317 200.11026382 16.57927513 C201.9730955 16.59641734 203.83596197 16.61015546 205.69884491 16.62029648 C208.23537429 16.63458278 210.7714993 16.66089601 213.30789185 16.69029236 C214.42193412 16.6922035 214.42193412 16.6922035 215.55848229 16.69415325 C219.25100911 16.75036905 220.8433463 16.8955642 224 19 C219.39295279 19.90015835 214.93831933 20.14403393 210.25997925 20.13371277 C209.4996952 20.13597833 208.73941115 20.13824388 207.95608819 20.14057809 C205.41846374 20.14688824 202.88089312 20.14609064 200.34326172 20.14526367 C198.51950512 20.14825711 196.69574915 20.15166006 194.87199402 20.15544128 C189.92335091 20.16426872 184.9747251 20.16661893 180.02607489 20.16725707 C176.93070261 20.16796852 173.83533472 20.17010468 170.73996353 20.17275429 C159.93048067 20.18200497 149.12101013 20.1860897 138.31152344 20.18530273 C128.25394734 20.18470266 118.196425 20.19524135 108.13886249 20.2110464 C99.49063995 20.22414976 90.84243492 20.22948543 82.19420254 20.22884732 C77.03511803 20.22859307 71.87608126 20.23140372 66.71700668 20.24202538 C61.85950856 20.25175296 57.00210335 20.25175375 52.14460182 20.24450874 C50.36937257 20.24346853 48.59413739 20.245792 46.81891823 20.2518692 C29.89503649 20.30601683 16.78342456 19.51109265 3.875 7.3125 C1.53456971 4.9664706 0.58459552 3.27230906 0 0 Z " fill="#57B4A7" transform="translate(23,372)"/>
<path d="M0 0 C6.37339702 2.47983084 12.31417716 6.63197463 15.875 12.5625 C18.2181781 18.09110455 18.04982707 24.06960537 17.3125 29.9375 C14.88081069 35.40880094 10.0800206 39.38388609 5.3125 42.9375 C2.12124596 44.00125135 -0.21220971 44.07085484 -3.5625 44.0625 C-5.10550781 44.06636719 -5.10550781 44.06636719 -6.6796875 44.0703125 C-9.462148 43.94745061 -11.97989874 43.56694236 -14.6875 42.9375 C-14.6875 42.2775 -14.6875 41.6175 -14.6875 40.9375 C-15.6775 40.9375 -16.6675 40.9375 -17.6875 40.9375 C-24.72371188 34.7808146 -27.11891951 28.44676624 -27.9140625 19.34375 C-28.12474277 12.98503654 -27.2210643 9.05524454 -23.12890625 4.01953125 C-16.48863339 -2.89684444 -8.82544378 -2.42236831 0 0 Z M-18.875 9.375 C-22.39884195 14.35698345 -23.30954664 18.06425479 -23.1953125 24.17578125 C-22.462216 28.16269839 -20.73310333 30.00776341 -17.68359375 32.56640625 C-12.63642052 36.03325126 -7.92153961 37.92182204 -1.6875 36.9375 C3.17540315 34.1599823 7.95611171 30.51343276 10 25.125 C10.8295094 19.3184342 10.54939446 14.87762464 7.6953125 9.73828125 C4.61339288 5.72482095 0.66170184 4.24858152 -4.25390625 3.59765625 C-10.7814173 3.35445539 -14.4292312 4.42114334 -18.875 9.375 Z " fill="#4BC2B2" transform="translate(198.6875,243.0625)"/>
<path d="M0 0 C0.75942963 -0.00367669 1.51885925 -0.00735338 2.3013019 -0.01114148 C4.84202373 -0.02214043 7.38270462 -0.02601573 9.92344666 -0.02983093 C11.74705636 -0.03609853 13.5706648 -0.0427456 15.39427185 -0.04974365 C21.38046891 -0.07075426 27.36666614 -0.08114444 33.35289001 -0.09111023 C35.41705781 -0.09515915 37.48122547 -0.09927611 39.54539299 -0.10346031 C49.24594694 -0.12250677 58.94649331 -0.13673797 68.64706236 -0.14507228 C79.82747187 -0.1548377 91.00768302 -0.18114144 102.18802267 -0.22157317 C110.84047041 -0.25178429 119.49286145 -0.26654596 128.14536089 -0.26985329 C133.30788414 -0.27219839 138.47019537 -0.28108827 143.63266182 -0.30631447 C148.49432357 -0.32968719 153.35563507 -0.33379157 158.21733856 -0.32355309 C159.99419003 -0.32305982 161.77105927 -0.32931802 163.54785728 -0.34310913 C174.47562641 -0.42312974 184.3775502 -0.08328671 194.03472996 5.75080395 C196.32443871 7.29701948 196.32443871 7.29701948 199.06773376 7.64717102 C201.38023376 8.14717102 201.38023376 8.14717102 203.38023376 11.14717102 C202.72023376 12.13717102 202.06023376 13.12717102 201.38023376 14.14717102 C200.8839447 13.74885071 200.38765564 13.3505304 199.87632751 12.94013977 C190.73681617 5.81236147 182.59199406 3.98180748 171.09753418 4.0269165 C170.29117694 4.02606208 169.48481971 4.02520765 168.6540274 4.02432734 C165.96711811 4.02268753 163.28027202 4.02816925 160.59336853 4.03364563 C158.66132611 4.03392785 156.72928357 4.03376908 154.79724121 4.03320312 C149.56227607 4.03291652 144.3273339 4.03879125 139.09237409 4.04577708 C133.61776677 4.05203328 128.14315892 4.05261622 122.66854858 4.05380249 C112.3060646 4.05690912 101.94359118 4.06511351 91.58111185 4.07515198 C79.78190095 4.08633386 67.98268954 4.0918288 56.18347466 4.09684741 C31.91572184 4.10729667 7.64797839 4.12488318 -16.61976624 4.14717102 C-11.52528797 -0.19256973 -6.44278492 -0.00168517 0 0 Z " fill="#46C2B2" transform="translate(61.61976623535156,139.8528289794922)"/>
<path d="M0 0 C4.33910274 3.37485769 5.9538169 6.54978267 6.6875 12 C6.09814956 17.05157523 3.99133821 19.44515125 0.25 22.75 C-2.87012873 24.67007922 -4.50564504 24.75444282 -8.1875 24.6875 C-12.54388284 23.54108346 -14.64712141 21.99719852 -17.75 18.75 C-20.03788146 14.17423708 -20.15198149 10.65693521 -18.75 5.75 C-14.00816112 -0.58191658 -7.72625802 -3.51193546 0 0 Z " fill="#EBEBEB" transform="translate(464.75,133.25)"/>
<path d="M0 0 C0.85904434 -0.00014603 1.71808868 -0.00029205 2.60316467 -0.0004425 C5.43297887 0.00025227 8.26272665 0.00802428 11.0925293 0.01586914 C13.0583645 0.01773487 15.02420017 0.01915804 16.99003601 0.02015686 C22.15704641 0.02396986 27.32402857 0.03378977 32.49102783 0.04486084 C37.76639423 0.05510112 43.0417652 0.05966009 48.31713867 0.06469727 C58.66285418 0.07541312 69.00854876 0.09247494 79.35424805 0.11352539 C79.35424805 0.77352539 79.35424805 1.43352539 79.35424805 2.11352539 C78.39276855 2.10828857 77.43128906 2.10305176 76.44067383 2.09765625 C67.26501331 2.0530147 58.0901726 2.05173316 48.91447449 2.09017944 C44.19989645 2.10861362 39.48626497 2.11310254 34.77172852 2.08276367 C-2.04179188 1.07170606 -2.04179188 1.07170606 -33.9387207 17.28149414 C-34.50204102 17.88606445 -35.06536133 18.49063477 -35.64575195 19.11352539 C-37.31241862 20.78019206 -38.97908529 22.44685872 -40.64575195 24.11352539 C-41.30575195 24.11352539 -41.96575195 24.11352539 -42.64575195 24.11352539 C-42.8159082 24.70520508 -42.98606445 25.29688477 -43.16137695 25.90649414 C-44.66855792 30.82086612 -46.2616853 34.16544763 -49.64575195 38.11352539 C-50.9856255 41.77697711 -50.7097045 45.44388739 -50.64575195 49.30102539 C-50.60833856 51.5715505 -50.598759 53.84317835 -50.64575195 56.11352539 C-51.14075195 56.60852539 -51.14075195 56.60852539 -51.64575195 57.11352539 C-51.80031764 59.69061095 -51.87748039 62.2224506 -51.89575195 64.80102539 C-51.91637695 65.50936523 -51.93700195 66.21770508 -51.95825195 66.94750977 C-51.99429033 71.82620454 -50.97436633 74.74417479 -48.64575195 79.11352539 C-48.97575195 80.10352539 -49.30575195 81.09352539 -49.64575195 82.11352539 C-49.74887695 81.47415039 -49.85200195 80.83477539 -49.95825195 80.17602539 C-50.18512695 79.49540039 -50.41200195 78.81477539 -50.64575195 78.11352539 C-51.63575195 77.78352539 -52.62575195 77.45352539 -53.64575195 77.11352539 C-57.82580935 64.13334715 -56.64356989 47.36467433 -51.2277832 34.83227539 C-49.84192014 32.45064405 -48.60348662 30.98496873 -46.64575195 29.11352539 C-45.72896352 27.34483236 -45.72896352 27.34483236 -44.95825195 25.42602539 C-41.84113822 18.92804215 -36.19548937 13.19575476 -29.64575195 10.11352539 C-28.98575195 10.11352539 -28.32575195 10.11352539 -27.64575195 10.11352539 C-27.31575195 9.12352539 -26.98575195 8.13352539 -26.64575195 7.11352539 C-23.88012695 5.54321289 -23.88012695 5.54321289 -20.39575195 3.98852539 C-19.2562207 3.47032227 -18.11668945 2.95211914 -16.94262695 2.41821289 C-11.26537854 0.17152928 -6.05764292 -0.02705828 0 0 Z " fill="#43C4B3" transform="translate(190.645751953125,202.886474609375)"/>
<path d="M0 0 C-1.299375 0.86625 -1.299375 0.86625 -2.625 1.75 C-3.16769531 2.11351562 -3.71039063 2.47703125 -4.26953125 2.8515625 C-5.93934018 3.95974269 -7.62568013 5.04288914 -9.3125 6.125 C-12.0613952 7.72474336 -12.0613952 7.72474336 -13 10 C-13.66 10 -14.32 10 -15 10 C-15.2475 10.763125 -15.495 11.52625 -15.75 12.3125 C-17 16 -17 16 -17.97787857 18.14800739 C-21.71358992 26.84904265 -21.57663025 35.31398787 -21.54589844 44.58862305 C-21.55464698 46.3439271 -21.5651372 48.09922321 -21.57722473 49.85450745 C-21.60494853 54.58930643 -21.60849244 59.32384343 -21.60750484 64.05871177 C-21.61064571 69.01818867 -21.63628826 73.9775496 -21.65948486 78.93696594 C-21.69995875 88.31474626 -21.7203653 97.6924572 -21.73345876 107.07031137 C-21.74935803 117.75240835 -21.78778596 128.43438775 -21.82805204 139.11641634 C-21.91033309 161.07757205 -21.96449883 183.03872209 -22 205 C-22.66 205.33 -23.32 205.66 -24 206 C-24.15435488 184.485008 -24.30237279 162.96998058 -24.4429636 141.45489407 C-24.50839639 131.46380287 -24.57585857 121.47273326 -24.64819336 111.48168945 C-24.71127662 102.76776127 -24.77045528 94.05381655 -24.82505554 85.33983094 C-24.85406655 80.73108514 -24.88495777 76.12237015 -24.92053413 71.51366997 C-24.95404628 67.16435355 -24.98228665 62.81503294 -25.00670624 58.46565628 C-25.01649575 56.88034982 -25.02811331 55.29505327 -25.04183006 53.70977592 C-25.10694445 46.06631773 -25.07502721 38.43740271 -24.67051697 30.80262756 C-24.60980483 29.63229508 -24.54909269 28.4619626 -24.48654079 27.2561655 C-23.66401274 21.75141129 -20.98171163 17.60096651 -18 13 C-17.02945417 11.2776583 -16.07016348 9.54890034 -15.125 7.8125 C-14.4171122 6.54141844 -13.70896103 5.27048327 -13 4 C-12.34 4 -11.68 4 -11 4 C-10.67 3.01 -10.34 2.02 -10 1 C-3.84210526 -1.28070175 -3.84210526 -1.28070175 0 0 Z " fill="#48C3B2" transform="translate(45,145)"/>
<path d="M0 0 C1.94288727 -0.00389337 3.8857737 -0.00822935 5.82865906 -0.01298523 C9.88067398 -0.02040998 13.93260168 -0.02018156 17.98461914 -0.01489258 C23.17073 -0.00907455 28.35648643 -0.02610321 33.54253864 -0.04923725 C37.54630103 -0.06397384 41.54997774 -0.06484687 45.55376244 -0.06172752 C47.46628718 -0.06223984 49.37881683 -0.06746069 51.29131508 -0.07753944 C53.96177944 -0.08989779 56.63154846 -0.0831181 59.30200195 -0.0715332 C60.08601379 -0.07917694 60.87002563 -0.08682068 61.67779541 -0.09469604 C66.48292491 -0.04870146 69.66221607 0.76838232 73.88671875 3.30078125 C73.55671875 3.96078125 73.22671875 4.62078125 72.88671875 5.30078125 C49.15329187 5.47728843 25.42923476 5.16319619 1.69921875 4.80078125 C0.91604782 4.78882343 0.13287689 4.77686562 -0.67402649 4.76454544 C-10.48718154 4.61430924 -20.30026088 4.4595777 -30.11328125 4.30078125 C-30.44328125 3.64078125 -30.77328125 2.98078125 -31.11328125 2.30078125 C-20.83859597 -0.28083089 -10.51273212 -0.00880131 0 0 Z " fill="#5CB3A7" transform="translate(213.11328125,215.69921875)"/>
<path d="M0 0 C2.42999536 2.27364177 3.42805835 3.68273845 4 7 C4.66 7 5.32 7 6 7 C6.33 6.01 6.66 5.02 7 4 C8.49821059 7.37097383 9 9.20442119 9 13 C8.34 13 7.68 13 7 13 C7 26.2 7 39.4 7 53 C-11.11788795 53.07425364 -29.20241479 53.06651658 -47.3125 52.5625 C-48.05173706 52.54285187 -48.79097412 52.52320374 -49.5526123 52.50296021 C-59.05773389 52.24517308 -68.52045517 51.76184095 -78 51 C-78 50.67 -78 50.34 -78 50 C-51.27 50 -24.54 50 3 50 C2.59405746 31.40846184 2.59405746 31.40846184 0.41015625 13.7109375 C-0.2799304 9.14979336 -0.16591972 4.59966327 0 0 Z " fill="#5BC2B3" transform="translate(267,155)"/>
<path d="M0 0 C0.33 0 0.66 0 1 0 C1.33 4.29 1.66 8.58 2 13 C2.66 12.01 3.32 11.02 4 10 C3.7911685 21.04908492 1.41304362 28.66041251 -6.1875 36.8125 C-11.47186719 41.77154009 -17.61652014 46.25194774 -25.125 46.3125 C-26.548125 46.1578125 -26.548125 46.1578125 -28 46 C-27.01 45.505 -27.01 45.505 -26 45 C-26 44.01 -26 43.02 -26 42 C-19.375 39 -19.375 39 -16 39 C-15.73832031 38.41476562 -15.47664063 37.82953125 -15.20703125 37.2265625 C-13.93645592 34.88278276 -12.52881801 33.29389016 -10.6875 31.375 C-2.27826633 21.79197746 -0.95593255 12.29871431 0 0 Z " fill="#67C4B7" transform="translate(272,344)"/>
<path d="M0 0 C3.02407088 2.76110819 3.90022883 4.77494093 4.23828125 8.92578125 C4.4872879 20.28834771 4.4872879 20.28834771 0 25 C-5.56311937 30.36163818 -8.9207521 33.14483603 -16.875 33.125 C-18.41800781 33.12886719 -18.41800781 33.12886719 -19.9921875 33.1328125 C-22.774648 33.00995061 -25.29239874 32.62944236 -28 32 C-28 31.34 -28 30.68 -28 30 C-28.99 29.67 -29.98 29.34 -31 29 C-29.35 28.67 -27.7 28.34 -26 28 C-26 28.66 -26 29.32 -26 30 C-15.11626062 29.85984646 -15.11626062 29.85984646 -6 24.9375 C-3.70882949 21.43164545 -3.55250122 18.38969276 -3.85546875 14.2890625 C-4.07723078 10.77683145 -3.50539962 7.47462238 -3 4 C-2.34 4 -1.68 4 -1 4 C-0.67 2.68 -0.34 1.36 0 0 Z " fill="#45C3B2" transform="translate(212,254)"/>
<path d="M0 0 C0.33 0 0.66 0 1 0 C1.33 2.31 1.66 4.62 2 7 C2.33 7 2.66 7 3 7 C2.979375 8.155 2.95875 9.31 2.9375 10.5 C3.55861377 15.77946703 6.77967929 18.14283656 10.67578125 21.43359375 C14.87935239 24.26658875 18.99407129 24.58402502 24 24 C28.1680152 21.57887352 31.65071826 18.44231735 35 15 C35.82375075 17.82146963 36.22635916 19.42750419 35.12890625 22.203125 C32.83682211 25.19826736 30.90015754 27.54637632 27.09375 28.45507812 C22.4024353 29.07167555 17.72426808 29.09074224 13 29 C13 28.34 13 27.68 13 27 C12.319375 27.28875 11.63875 27.5775 10.9375 27.875 C6.90040872 28.04679112 5.49632569 26.40920692 2.55078125 23.8359375 C-1.30673096 19.26910945 -1.28568671 14.49650626 -1.1875 8.75 C-1.18685547 8.0178125 -1.18621094 7.285625 -1.18554688 6.53125 C-1.140625 1.140625 -1.140625 1.140625 0 0 Z " fill="#53BAAB" transform="translate(173,255)"/>
<path d="M0 0 C1.61882584 0.00666183 1.61882584 0.00666183 3.27035522 0.01345825 C5.10202744 0.01368484 5.10202744 0.01368484 6.97070312 0.01391602 C8.30805625 0.02413001 9.64540772 0.03456201 10.98275757 0.04519653 C12.34753208 0.04892623 13.71230926 0.05177341 15.0770874 0.05377197 C18.6709023 0.0614119 22.2645558 0.08106331 25.85830688 0.10317993 C29.52476823 0.12363072 33.19125564 0.13277204 36.85775757 0.14285278 C44.05314369 0.164309 51.24839677 0.19844911 58.44369507 0.24050903 C59.75021283 6.33935165 59.62970867 12.37900364 59.6289978 18.587677 C59.6311883 20.73387368 59.64938411 22.87955908 59.66830444 25.02566528 C59.67123824 26.39936146 59.67322313 27.77306005 59.67416382 29.14675903 C59.67827271 30.38748169 59.68238159 31.62820435 59.68661499 32.90652466 C59.45184149 36.12870248 58.83028165 38.34712153 57.44369507 41.24050903 C57.11369507 41.24050903 56.78369507 41.24050903 56.44369507 41.24050903 C56.44369507 28.37050903 56.44369507 15.50050903 56.44369507 2.24050903 C36.31369507 2.24050903 16.18369507 2.24050903 -4.55630493 2.24050903 C-2.55630493 0.24050903 -2.55630493 0.24050903 0 0 Z " fill="#59ACA0" transform="translate(217.55630493164063,315.7594909667969)"/>
<path d="M0 0 C4.47089249 0.12973572 8.85768714 0.91957765 13.1875 2 C24.48215775 4.62800952 36.48102352 4.1786585 48.0234375 4.31640625 C49.50558963 4.3370476 50.98773683 4.35804552 52.46987915 4.37937927 C56.31986427 4.43386042 60.16989573 4.483587 64.0199585 4.53222656 C67.96907542 4.58299142 71.91812731 4.63838666 75.8671875 4.69335938 C83.57806952 4.80003236 91.28900661 4.90166829 99 5 C99 5.66 99 6.32 99 7 C88.8802485 7.09341211 78.76060254 7.16412136 68.64050484 7.20724869 C63.9393789 7.22796621 59.23855173 7.25598737 54.53759766 7.30175781 C49.98581966 7.34578945 45.43432575 7.36925551 40.88235092 7.37950897 C39.16112684 7.38679908 37.43991514 7.40102839 35.71881485 7.42292023 C23.7397701 7.56898167 12.51056864 6.51927258 1 3 C0.34 2.34 -0.32 1.68 -1 1 C-0.67 0.67 -0.34 0.34 0 0 Z " fill="#42C3B3" transform="translate(171,316)"/>
<path d="M0 0 C0.79470703 -0.02900391 1.58941406 -0.05800781 2.40820312 -0.08789062 C7.83046879 -0.14619456 10.90867398 0.67582551 15.1875 4.3125 C17.1875 7.3125 17.1875 7.3125 16.8125 9.5 C16.60625 10.098125 16.4 10.69625 16.1875 11.3125 C15.69121094 10.97476563 15.19492188 10.63703125 14.68359375 10.2890625 C6.77974613 5.09981909 -1.30515765 2.65028915 -10.8125 4.3125 C-14.96383125 6.63986051 -17.74107014 9.66071229 -20.3125 13.625 C-21.37468694 19.33425483 -21.0628556 25.03382245 -20.1875 30.75 C-19.8125 34.3125 -19.8125 34.3125 -21.8125 37.3125 C-25.21927017 30.44401176 -24.84577673 21.77505415 -23.8125 14.3125 C-21.53314911 8.19755174 -17.48685224 4.33882119 -11.8125 1.3125 C-7.83227513 -0.01424162 -4.16886239 0.04998636 0 0 Z " fill="#3CC4B3" transform="translate(192.8125,238.6875)"/>
<path d="M0 0 C3.64581687 -0.02887512 7.29160463 -0.04675585 10.9375 -0.0625 C12.49887695 -0.07506836 12.49887695 -0.07506836 14.09179688 -0.08789062 C15.57583008 -0.09272461 15.57583008 -0.09272461 17.08984375 -0.09765625 C18.46450806 -0.10551147 18.46450806 -0.10551147 19.86694336 -0.11352539 C22 0 22 0 23 1 C23.14824722 3.93456906 23.23524409 6.84844014 23.28125 9.78515625 C23.30886414 11.11963051 23.30886414 11.11963051 23.33703613 12.48106384 C23.39597333 15.3414731 23.44863148 18.20194544 23.5 21.0625 C23.55158619 23.89805294 23.6046887 26.73353067 23.66296387 29.56895447 C23.69924129 31.33528569 23.73175442 33.10169962 23.7598877 34.86817932 C23.86445852 39.97876362 24.11386191 44.95919918 25 50 C25.66 50.33 26.32 50.66 27 51 C25.35830472 53.02054804 23.69088222 55.02043058 22 57 C21.67 57 21.34 57 21 57 C21 38.52 21 20.04 21 1 C14.07 1 7.14 1 0 1 C0 0.67 0 0.34 0 0 Z " fill="#111111" transform="translate(342,138)"/>
<path d="M0 0 C7.96951377 0.33438519 14.11761268 2.9887796 20.44921875 7.83203125 C22.32904496 9.98928729 22.48938191 11.13984457 22.484375 13.96875 C22.319375 15.165 22.154375 16.36125 21.984375 17.59375 C21.654375 16.93375 21.324375 16.27375 20.984375 15.59375 C19.994375 15.92375 19.004375 16.25375 17.984375 16.59375 C17.77683594 16.05105469 17.56929687 15.50835937 17.35546875 14.94921875 C15.69219841 11.08681273 14.55061345 8.9712423 10.984375 6.59375 C5.87761655 4.83934939 0.30213268 5.35798734 -5.015625 5.59375 C-2.60198864 0.76647727 -2.60198864 0.76647727 0 0 Z " fill="#58B6A8" transform="translate(190.015625,242.40625)"/>
<path d="M0 0 C0.99 0.495 0.99 0.495 2 1 C2.34740923 2.99760305 2.67966043 4.99787771 3 7 C3.99 8.485 3.99 8.485 5 10 C5.17207928 12.90184868 5.23201104 15.70544247 5.1953125 18.60546875 C5.1924826 19.44467361 5.18965271 20.28387848 5.18673706 21.14851379 C5.17554385 23.82832103 5.15044101 26.50779381 5.125 29.1875 C5.11496908 31.00455246 5.10584343 32.82161017 5.09765625 34.63867188 C5.07560734 39.09257675 5.04108351 43.54623167 5 48 C4.34 48 3.68 48 3 48 C2.98018066 47.34104736 2.96036133 46.68209473 2.93994141 46.00317383 C2.4734612 29.81579726 2.4734612 29.81579726 0.41015625 13.78125 C-0.26649056 9.1929402 -0.16683709 4.62509489 0 0 Z " fill="#48C3B2" transform="translate(267,155)"/>
<path d="M0 0 C1.32 0.99 2.64 1.98 4 3 C4.66 2.34 5.32 1.68 6 1 C8 4 8 4 8 7 C8.66386719 7.15855469 9.32773437 7.31710937 10.01171875 7.48046875 C15.69219579 8.98144152 19.15019731 10.3335725 23 15 C23.598125 15.598125 24.19625 16.19625 24.8125 16.8125 C25.204375 17.204375 25.59625 17.59625 26 18 C23.55313713 18.8826583 22.29318267 19.08949787 19.7734375 18.3203125 C12.5196914 14.70525337 4.22239643 9.82422641 0.71875 2.21875 C0.4815625 1.4865625 0.244375 0.754375 0 0 Z " fill="#61BFB1" transform="translate(23,372)"/>
<path d="M0 0 C0.66 0 1.32 0 2 0 C2.94622202 2.83866606 3.12868596 4.60103842 3.1328125 7.54296875 C3.13474609 8.44515137 3.13667969 9.34733398 3.13867188 10.27685547 C3.13416016 11.23736816 3.12964844 12.19788086 3.125 13.1875 C3.12306641 14.16605957 3.12113281 15.14461914 3.11914062 16.15283203 C3.07029817 24.46554703 2.66474303 32.71445289 2 41 C1.01 40.67 0.02 40.34 -1 40 C-0.67 26.8 -0.34 13.6 0 0 Z " fill="#59ACA1" transform="translate(274,168)"/>
<path d="M0 0 C1.64872145 3.2974429 0.90413407 6.90148742 0.6875 10.5 C0.64117432 11.31065918 0.59484863 12.12131836 0.54711914 12.95654297 C0.17367981 18.7835947 -0.62475904 24.31567069 -2 30 C-3.48046875 28.984375 -3.48046875 28.984375 -5 27 C-5.2740451 24.32437688 -5.37335561 21.91790997 -5.3125 19.25 C-5.31572266 18.5590625 -5.31894531 17.868125 -5.32226562 17.15625 C-5.27347346 12.43671665 -4.47256319 8.48222422 -3 4 C-2.34 4 -1.68 4 -1 4 C-0.67 2.68 -0.34 1.36 0 0 Z " fill="#64C8BA" transform="translate(143,249)"/>
<path d="M0 0 C0.66 0.99 1.32 1.98 2 3 C0.38141738 6.82574074 -1.77995056 10.34540094 -5 13 C-7.77784625 13.84405568 -10.42341963 13.88532737 -13.3125 13.875 C-14.05306641 13.895625 -14.79363281 13.91625 -15.55664062 13.9375 C-17.37060942 13.9843121 -19.18543229 13.99573545 -21 14 C-21 13.01 -21 12.02 -21 11 C-18.28376412 9.26160904 -17.04068554 8.99687034 -13.75 9.25 C-8.57672556 8.90511504 -5.70054827 6.49638009 -2 3 C-1.34 2.01 -0.68 1.02 0 0 Z " fill="#50A89B" transform="translate(207,270)"/>
<path d="M0 0 C3.12187152 5.41124398 3.20233325 10.34058866 2.0625 16.375 C1.86785156 17.43460938 1.67320312 18.49421875 1.47265625 19.5859375 C1.31667969 20.38257813 1.16070312 21.17921875 1 22 C0.67 22 0.34 22 0 22 C0 19.03 0 16.06 0 13 C-0.33 13.99 -0.66 14.98 -1 16 C-1.99 16 -2.98 16 -4 16 C-4.31503541 10.01432727 -3.72729876 6.34550556 -1 1 C-0.67 0.67 -0.34 0.34 0 0 Z " fill="#52B6A9" transform="translate(143,237)"/>
<path d="M0 0 C0.66 0.33 1.32 0.66 2 1 C1.54109375 1.40089844 1.0821875 1.80179688 0.609375 2.21484375 C-5.70433842 8.06431353 -9.11250746 14.34694772 -10 23 C-10.33 23 -10.66 23 -11 23 C-11.68853935 10.10901337 -11.68853935 10.10901337 -9.25 6.375 C-6.27858541 3.23850682 -4.11183176 1.37061059 0 0 Z " fill="#66C4B6" transform="translate(185,245)"/>
<path d="M0 0 C-2.14800843 2.36280927 -4.16680467 3.58340234 -7 5 C-7.33 5.66 -7.66 6.32 -8 7 C-8.99 7.33 -9.98 7.66 -11 8 C-11.33 8.66 -11.66 9.32 -12 10 C-13.33333333 10.66666667 -14.66666667 11.33333333 -16 12 C-16.33 12.66 -16.66 13.32 -17 14 C-17.66 14 -18.32 14 -19 14 C-17.48888889 10.22222222 -17.48888889 10.22222222 -14.9375 9.0625 C-14.298125 8.711875 -13.65875 8.36125 -13 8 C-12.65846063 6.33499557 -12.32550502 4.66821323 -12 3 C-8.60949996 -0.93298005 -4.82031374 -0.24101569 0 0 Z " fill="#62C0B2" transform="translate(46,139)"/>
<path d="M0 0 C4.62851516 1.37604505 5.58154959 2.96924931 8 7 C10.56231169 9.46022756 13.25956147 11.74125376 16 14 C15.01 14.33 14.02 14.66 13 15 C7.72700363 12.1649371 3.43972731 7.83711653 0 3 C0 2.01 0 1.02 0 0 Z " fill="#67BEB1" transform="translate(158,288)"/>
<path d="M0 0 C1.1171875 1.734375 1.1171875 1.734375 2 4 C1.3203125 6.140625 1.3203125 6.140625 0.125 8.25 C-0.26429688 8.95640625 -0.65359375 9.6628125 -1.0546875 10.390625 C-1.36664063 10.92171875 -1.67859375 11.4528125 -2 12 C-2.66 12 -3.32 12 -4 12 C-5.125 4.375 -5.125 4.375 -4 1 C-2 0 -2 0 0 0 Z " fill="#60BEB1" transform="translate(149,232)"/>
<path d="M0 0 C0.66 0 1.32 0 2 0 C2.33 1.32 2.66 2.64 3 4 C3.66 4 4.32 4 5 4 C5.33 3.01 5.66 2.02 6 1 C7.49821059 4.37097383 8 6.20442119 8 10 C7.34 10 6.68 10 6 10 C6 11.98 6 13.96 6 16 C5.34 16.33 4.68 16.66 4 17 C3.96261719 16.33613281 3.92523438 15.67226562 3.88671875 14.98828125 C3.50473895 9.85776831 3.07822952 6.28275411 0 2 C0 1.34 0 0.68 0 0 Z " fill="#5BB8AA" transform="translate(268,158)"/>
<path d="M0 0 C0.66 0 1.32 0 2 0 C3.22485812 2.44971624 3.16722808 4.14234461 3.1875 6.875 C3.20167969 7.73867188 3.21585938 8.60234375 3.23046875 9.4921875 C2.98859252 12.1241288 2.32983541 13.73980544 1 16 C0.34 15.67 -0.32 15.34 -1 15 C-0.67 10.05 -0.34 5.1 0 0 Z " fill="#65C3B5" transform="translate(209,258)"/>
<path d="M0 0 C3.2826932 1.49076434 5.93077441 3.38620321 8.75 5.625 C9.94882813 6.57246094 9.94882813 6.57246094 11.171875 7.5390625 C11.77515625 8.02117187 12.3784375 8.50328125 13 9 C10.18185434 10.40907283 8.82722796 9.50872691 5.875 8.5625 C4.96492187 8.27503906 4.05484375 7.98757813 3.1171875 7.69140625 C2.41851562 7.46324219 1.71984375 7.23507812 1 7 C0.67 4.69 0.34 2.38 0 0 Z " fill="#62BBAE" transform="translate(176,271)"/>
<path d="M0 0 C0.66 0.99 1.32 1.98 2 3 C0.33248852 6.94139078 -2.22710649 9.7892812 -5 13 C-6.32 12.67 -7.64 12.34 -9 12 C-8.01 12 -7.02 12 -6 12 C-6.33 11.01 -6.66 10.02 -7 9 C-5.56640625 6.73828125 -5.56640625 6.73828125 -3.5625 4.3125 C-2.90378906 3.50425781 -2.24507812 2.69601562 -1.56640625 1.86328125 C-1.04949219 1.24839844 -0.53257812 0.63351562 0 0 Z " fill="#55AFA2" transform="translate(207,270)"/>
<path d="M0 0 C0.66 0 1.32 0 2 0 C2.96070434 2.88211302 3.10581883 4.69850044 3.0625 7.6875 C3.05347656 8.49574219 3.04445313 9.30398438 3.03515625 10.13671875 C3.02355469 10.75160156 3.01195312 11.36648438 3 12 C1.25372522 9.38058783 0.61277612 7.96175123 0 5 C-0.763125 5.639375 -1.52625 6.27875 -2.3125 6.9375 C-5 9 -5 9 -8 10 C-8 9.34 -8 8.68 -8 8 C-6.34997172 6.64613064 -4.6825613 5.31321858 -3 4 C-2.67 3.34 -2.34 2.68 -2 2 C-1.34 2 -0.68 2 0 2 C0 1.34 0 0.68 0 0 Z " fill="#2D2D2D" transform="translate(551,389)"/>
<path d="M0 0 C0.9075 0.309375 1.815 0.61875 2.75 0.9375 C5.79458584 2.00377147 5.79458584 2.00377147 8.1875 2.4375 C10.43324729 3.13445606 11.47540696 4.24671801 13 6 C10.60042386 6.84119973 9.35077442 7.11193544 6.89453125 6.328125 C6.20746094 5.97234375 5.52039062 5.6165625 4.8125 5.25 C4.11769531 4.90453125 3.42289063 4.5590625 2.70703125 4.203125 C1 3 1 3 0 0 Z " fill="#5EAEA3" transform="translate(36,384)"/>
<path d="M0 0 C0.66 0.33 1.32 0.66 2 1 C1.43410156 1.54269531 0.86820313 2.08539063 0.28515625 2.64453125 C-0.44832031 3.35996094 -1.18179688 4.07539063 -1.9375 4.8125 C-2.66839844 5.52019531 -3.39929688 6.22789062 -4.15234375 6.95703125 C-6.20834646 8.95536163 -6.20834646 8.95536163 -7 12 C-9.0625 13.1875 -9.0625 13.1875 -11 14 C-9.49665796 8.65478385 -5.82879909 4.86491984 -2 1 C-1.34 0.67 -0.68 0.34 0 0 Z " fill="#5EB1A4" transform="translate(167,226)"/>
<path d="M0 0 C2.97 1.65 5.94 3.3 9 5 C9 5.66 9 6.32 9 7 C9.66 7.33 10.32 7.66 11 8 C6.76204266 8.36325349 4.33246046 7.68448204 1 5 C0.67 3.35 0.34 1.7 0 0 Z " fill="#46C3B2" transform="translate(30,374)"/>
<path d="M0 0 C0.66 0 1.32 0 2 0 C2 0.99 2 1.98 2 3 C-0.3125 5 -0.3125 5 -3 7 C-4.0173873 7.98230498 -5.02596117 8.97469597 -6 10 C-6.66 9.67 -7.32 9.34 -8 9 C-6.71520959 7.49410612 -5.42195918 5.99542625 -4.125 4.5 C-3.04605469 3.24703125 -3.04605469 3.24703125 -1.9453125 1.96875 C-1.30335937 1.3190625 -0.66140625 0.669375 0 0 Z " fill="#5BACA0" transform="translate(31,144)"/>
<path d="M0 0 C0.66 0.33 1.32 0.66 2 1 C-0.97 3.97 -3.94 6.94 -7 10 C-7.33 9.34 -7.66 8.68 -8 8 C-3.375 2.25 -3.375 2.25 0 0 Z " fill="#BBBCBB" transform="translate(511,319)"/>
<path d="M0 0 C-0.75 2.4375 -0.75 2.4375 -2 5 C-4.125 5.8125 -4.125 5.8125 -6 6 C-6 4.68 -6 3.36 -6 2 C-3 0 -3 0 0 0 Z " fill="#67CBBC" transform="translate(161,238)"/>
<path d="M0 0 C0.66 0.33 1.32 0.66 2 1 C-0.64 3.64 -3.28 6.28 -6 9 C-6.66 8.67 -7.32 8.34 -8 8 C-3.375 2.25 -3.375 2.25 0 0 Z " fill="#B6B6B6" transform="translate(677,174)"/>
<path d="M0 0 C1.2065625 0.0309375 1.2065625 0.0309375 2.4375 0.0625 C0.31628343 2.39583823 -1.57844365 3.9773886 -4.5625 5.0625 C-6.8125 4.6875 -6.8125 4.6875 -8.5625 4.0625 C-7.758125 3.588125 -6.95375 3.11375 -6.125 2.625 C-1.89583333 0.04623984 -1.89583333 0.04623984 0 0 Z " fill="#6ECDBF" transform="translate(43.5625,138.9375)"/>
<path d="M0 0 C1.32 0.99 2.64 1.98 4 3 C1.525 4.485 1.525 4.485 -1 6 C-1.99 5.34 -2.98 4.68 -4 4 C-2.68 2.68 -1.36 1.36 0 0 Z " fill="#57AFA1" transform="translate(162,217)"/>
<path d="M0 0 C0.33 0.66 0.66 1.32 1 2 C1.99 2 2.98 2 4 2 C3.25 7.75 3.25 7.75 1 10 C0.67 6.7 0.34 3.4 0 0 Z " fill="#191819" transform="translate(381,366)"/>
<path d="M0 0 C0.99 0.33 1.98 0.66 3 1 C2.67 2.98 2.34 4.96 2 7 C0.4375 5.75 0.4375 5.75 -1 4 C-0.6875 1.8125 -0.6875 1.8125 0 0 Z " fill="#242424" transform="translate(449,368)"/>
<path d="M0 0 C0.33 0 0.66 0 1 0 C1.309375 0.94875 1.61875 1.8975 1.9375 2.875 C2.87394742 5.86080408 2.87394742 5.86080408 4 8 C3.34 8 2.68 8 2 8 C2 8.66 2 9.32 2 10 C1.34 10 0.68 10 0 10 C0 6.7 0 3.4 0 0 Z " fill="#121212" transform="translate(507,169)"/>
<path d="M0 0 C0.66 0.33 1.32 0.66 2 1 C-0.31 3.31 -2.62 5.62 -5 8 C-5 5 -5 5 -2.5 2.3125 C-1.675 1.549375 -0.85 0.78625 0 0 Z " fill="#C3C3C3" transform="translate(632,170)"/>
</svg>
